<?xml version="1.0" encoding="utf-8"?>
<!-- Generator: Adobe Illustrator 25.0.0, SVG Export Plug-In . SVG Version: 6.00 Build 0)  -->
<svg version="1.1" id="Layer_1" xmlns="http://www.w3.org/2000/svg" xmlns:xlink="http://www.w3.org/1999/xlink" x="0px" y="0px"
	 viewBox="0 0 1021.1 541.8" style="enable-background:new 0 0 1021.1 541.8;" xml:space="preserve">
<style type="text/css">
	.st0{fill:#BC9B6A;}
	.st1{fill:#FFFFFF;}
	.st2{fill:#F15B28;}
	.st3{fill:#27251F;}
</style>
<g>
	<path class="st0" d="M502.3,0c-149.5,0-271,121.6-271,271s121.6,270.7,271,270.7s271-121.6,271-270.7C773,121.6,651.4,0,502.3,0z"
		/>
	<circle class="st1" cx="502.3" cy="271" r="266.3"/>
	<path class="st0" d="M348.1,94.2l-0.8-1.1l5.8-0.6v-4.7c0,0,4.7,3,5.5,5c0.8,1.9-3,5-3,5l1.4,18.5c0,0-0.3,1.4,1.1,3.9
		c1.4,2.5,7.5,3.9,7.5,3.9h-5.2l-16.6,13c0,0-1.1,5.2-3.9,6.6c-0.6,0.3-1.1,0.3-1.7,0.3c-2.8,0-5-2.8-5-2.8s1.7-0.3,2.8-0.3
		c1.1,0,1.7-2.5,1.7-2.5l-1.9-6.9h3.6l14.9-11.3c0,0-3.3-1.4-4.4-3.6L348.1,94.2z M364.1,143.1l2.2,6.6c0,0-0.3,2.5-1.4,2.5
		c-1.1,0-2.8,0.3-2.8,0.3s2.8,2.5,5.2,2.5c0.6,0,1.1,0,1.7-0.6c2.5-1.4,3.3-6.6,3.3-6.6l15.7-13.5l5-0.3c0,0-6.1-1.1-7.5-3.3
		c-1.4-2.2-1.4-3.9-1.4-3.9l-2.2-18c0,0,3.6-3,2.8-5c-0.8-1.9-5.8-4.7-5.8-4.7l0.3,4.7l-5.5,0.8l0.8,0.8l2.8,21.8
		c1.1,2.2,4.4,3.3,4.4,3.3l-14.1,12.4H364.1z M315.5,132.3c2.8-1.4,3.9-6.6,3.9-6.6l16.6-13h5.2c0,0-6.1-1.4-7.5-3.9
		c-1.4-2.5-1.4-3.9-1.4-3.9L331,86.5c0,0,3.9-3,3-5s-5.5-5-5.5-5v4.7l-5.8,0.6l0.8,1.1l1.7,22.4c1.1,2.2,4.4,3.6,4.4,3.6l-14.4,11.3
		h-3.6l1.9,6.9c0,0-0.6,2.5-1.7,2.5s-2.8,0.3-2.8,0.3s2.2,2.8,4.7,2.8C314.4,132.6,314.9,132.6,315.5,132.3z M449.5,411.6L439,393.1
		c-1.4-1.4-4.1-1.4-5-1.4c-0.3,0-0.3,0-0.3,0l8-16.3l3-1.4l-4.4-5c0,0-0.6-2.2,0.3-2.8c0.8-0.6,2.2-1.4,2.2-1.4s-1.7-0.8-3.3-0.8
		c-1.1,0-2.5,0.3-3.3,1.4c-1.7,2.2-0.6,7.5-0.6,7.5l-9.1,18l-4.4,1.9c0,0,2.2-0.6,4.4-0.6c1.4,0,2.8,0.3,3.3,0.8
		c2.2,1.4,2.8,3,2.8,3l8.8,15.5c0,0-2.2,4.1-0.6,5.5c1.4,1.4,6.9,1.9,6.9,1.9l-1.9-4.1l4.7-2.8L449.5,411.6z M423,416.9l-11.6-18
		c-1.1-1.1-3.3-1.1-4.4-1.1c-0.6,0-1.1,0-1.1,0L413,381l3-1.4l-4.7-4.7c0,0-0.8-2.2,0.3-2.8c0.8-0.6,2.2-1.4,2.2-1.4s-1.4-0.6-3-0.6
		c-1.4,0-2.8,0.3-3.6,1.7c-1.7,2.5-0.3,7.5-0.3,7.5l-8,18.5l-4.4,2.2c0,0,2.8-0.8,5.2-0.8c1.1,0,1.9,0.3,2.8,0.6
		c2.2,1.4,2.8,2.8,2.8,2.8l9.7,14.9c0,0-1.9,4.4-0.3,5.5c1.7,1.4,6.9,1.7,6.9,1.7l-2.2-4.1l4.7-3L423,416.9z M396.7,425.7L384,408.1
		c-1.1-0.8-2.8-0.8-3.9-0.8s-1.7,0-1.7,0l6.4-17.4l3-1.7l-5-4.7c0,0-0.8-2.2,0-2.8c0.8-0.6,2.2-1.7,2.2-1.7s-1.1-0.3-2.8-0.3
		c-1.4,0-3,0.3-3.9,1.9c-1.7,2.5,0.3,7.5,0.3,7.5l-7.2,19.1l-4.4,2.2c0,0,3-1.1,5.8-1.1c0.8,0,1.7,0,2.2,0.6c2.2,1.4,3,2.8,3,2.8
		l10.5,14.6c0,0-1.7,4.4,0,5.8s7.2,1.4,7.2,1.4l-2.5-3.9l4.4-3.3L396.7,425.7z M371,435.4l-13.8-17.1c-0.8-0.6-2.2-0.8-3.3-0.8
		c-1.4,0-2.5,0.3-2.5,0.3l5.5-18l3-1.9l-5.5-4.4c0,0-1.1-2.2,0-3c0.8-0.6,2.2-1.7,2.2-1.7s-1.1-0.3-2.2-0.3c-1.4,0-3.3,0.3-4.1,1.9
		c-1.4,2.8,0.6,7.5,0.6,7.5l-6.4,19.9l-5,3.3c0,0,3.6-1.4,6.4-1.4c0.8,0,1.4,0,1.9,0.3c2.5,1.1,3.3,2.5,3.3,2.5l11.6,14.1
		c0,0-1.4,4.7,0.3,5.8c1.1,0.8,4.4,0.8,6.1,0.8c0.8,0,1.4,0,1.4,0l-2.8-3.9l4.4-3.6L371,435.4z M344,449.2L329,432.6
		c-0.8-0.6-1.9-0.6-2.8-0.6c-1.7,0-3,0.3-3,0.3l4.7-18.5l2.8-2.2l-5.8-4.1c0,0-1.1-2.2-0.3-3c0.8-0.8,1.9-1.9,1.9-1.9
		s-0.8-0.3-1.9-0.3c-1.7,0-3.9,0.3-4.7,2.2c-1.4,2.8,1.1,7.7,1.1,7.7l-5.2,20.4l-3.6,3.6c0,0,3.9-1.7,6.6-1.7c0.6,0,1.1,0,1.7,0.3
		c2.5,1.1,3.3,2.5,3.3,2.5l12.4,13.8c0,0-1.4,4.7,0.6,5.8c0.8,0.6,2.8,0.6,4.4,0.6s3-0.3,3-0.3l-3-3.9l4.1-3.9L344,449.2z
		 M638.5,101.4l13.8,17.1c1.4,0.6,2.8,0.8,3.9,0.8c1.4,0,2.2-0.3,2.2-0.3l-5.5,18l-3,1.9l5.5,4.4c0,0,1.1,2.2,0,2.8
		c-0.8,0.6-2.2,1.7-2.2,1.7s1.1,0.3,2.2,0.3c1.4,0,3.3-0.3,4.4-1.9c1.4-2.8-0.6-7.5-0.6-7.5l6.4-19.9l4.1-3c0,0-3.6,1.4-6.1,1.4
		c-0.8,0-1.4,0-1.9-0.3c-2.5-1.1-3.3-2.5-3.3-2.5l-11.6-14.1c0,0,1.4-4.7-0.3-5.8c-1.1-0.8-4.1-0.8-6.1-0.8c-0.8,0-1.4,0-1.4,0
		l2.8,3.9l-4.4,3.6L638.5,101.4z M612.2,111.3l12.7,17.7c1.7,1.1,3,1.1,4.1,1.1c1.1,0,1.7,0,1.7,0l-6.4,17.4l-3,1.7l5,4.7
		c0,0,0.8,2.2,0,2.8s-2.2,1.7-2.2,1.7s1.1,0.3,2.8,0.3c1.4,0,3-0.3,3.9-1.7c1.7-2.5-0.3-7.5-0.3-7.5l7.2-19.1l4.1-2.8
		c0,0-3,1.1-5.8,1.1c-0.8,0-1.7,0-2.2-0.6c-2.2-1.4-3-2.8-3-2.8l-10.5-14.6c0,0,1.7-4.4,0-5.8c-1.7-1.4-7.2-1.4-7.2-1.4l2.5,3.9
		l-4.4,3.3L612.2,111.3z M665.5,87.9l14.9,16.6c0.3,0.3,1.4,0.6,2.5,0.6c1.7,0,3-0.3,3-0.3l-4.7,18.5l-2.8,2.2l5.8,4.1
		c0,0,1.1,2.2,0.3,3c-0.8,0.6-1.9,1.9-1.9,1.9s0.8,0.3,1.9,0.3c1.7,0,3.9-0.3,4.7-2.2c1.4-2.8-1.1-7.7-1.1-7.7l5.2-20.4l3.9-3.3
		c0,0-3.9,1.7-6.6,1.7c-0.6,0-1.1,0-1.7-0.3c-2.5-1.1-3.3-2.5-3.3-2.5l-12.4-13.8c0,0,1.4-4.7-0.6-5.8c-0.8-0.6-2.8-0.6-4.4-0.6
		c-1.7,0-3,0-3,0l3,3.9l-4.1,3.9L665.5,87.9z M453.1,172.9c-1.1,0.3-2.5,0.8-2.5,0.8s1.7,1.7,3.9,1.7c0.8,0,1.7-0.3,2.2-0.8
		c2.2-1.9,2.2-6.9,2.2-6.9l12.7-15.5l4.7-1.1c0,0-5.8,0-7.5-1.9c-1.7-1.9-1.9-3.6-1.9-3.6l-5-16.9c0,0,3-3.6,1.9-5.2
		c-1.1-1.7-6.1-3.6-6.1-3.6l1.1,4.4l-5.2,1.7l0.8,0.8l6.1,20.4c1.4,1.9,5,2.5,5,2.5l-11.6,14.1l-3.3,0.6l3.3,6.1
		C453.9,170.5,453.9,172.9,453.1,172.9z M392.6,153.6l3,5.2c0,0-0.3,2.5-1.1,2.5c-1.1,0-2.5,0.6-2.5,0.6s1.9,2.2,4.4,2.2
		c0.6,0,1.4-0.3,1.9-0.6c2.5-1.7,3-6.9,3-6.9l14.6-14.1l5-0.6c0,0-5.8-0.8-7.5-2.8c-1.7-2.2-1.7-3.9-1.7-3.9l-3.3-17.7
		c0,0,3.6-3.3,2.5-5.2c-0.8-1.9-5.8-4.1-5.8-4.1l0.6,4.7l-5.5,1.1l0.8,0.8l3.9,21.3c1.1,2.2,4.7,3,4.7,3l-14.4,13.5L392.6,153.6z
		 M423.8,168.2c-1.1,0.3-2.5,0.6-2.5,0.6s1.9,2.2,4.1,2.2c0.8,0,1.4-0.3,1.9-0.6c2.2-1.7,2.8-6.9,2.8-6.9l13.8-14.9l5-0.8
		c0,0-5.8-0.3-7.5-2.5c-1.7-2.2-1.7-3.6-1.7-3.6l-4.1-17.4c0,0,3.3-3.3,2.2-5.2c-1.1-1.7-6.1-3.9-6.1-3.9l0.8,4.7l-5.2,1.4l0.8,0.8
		l5,21c1.4,1.9,4.7,2.8,4.7,2.8l-12.4,13.5l-3.3,0.3l2.8,6.1C424.9,165.8,424.9,168.2,423.8,168.2z M586.2,120.2l11.6,18
		c1.4,0.6,3.3,0.8,4.4,0.8c0.6,0,1.1,0,1.1,0l-7.2,16.9l-3,1.7l4.7,5c0,0,0.8,2.2-0.3,2.8c-0.8,0.6-2.2,1.4-2.2,1.4s1.4,0.6,3,0.6
		c1.4,0,2.8-0.3,3.6-1.7c1.7-2.5,0.3-7.5,0.3-7.5l8-18.5l4.4-2.5c0,0-2.8,0.8-5.2,0.8c-1.1,0-2.2-0.3-2.8-0.6
		c-2.2-1.4-2.8-2.8-2.8-2.8l-9.7-14.9c0,0,1.9-4.4,0.3-5.5c-1.7-1.4-6.9-1.7-6.9-1.7l2.2,4.1l-4.7,3L586.2,120.2z M615,375.7
		c1.1,0,2.5-0.6,2.5-0.6s-2.2-2.2-4.4-2.2c-0.6,0-1.4,0.3-1.9,0.6c-2.5,1.7-3,6.9-3,6.9l-14.6,14.1l-5,0.6c0,0,5.8,0.8,7.5,2.8
		c1.4,2.2,1.7,3.9,1.7,3.9l3.3,17.7c0,0-3.6,3.3-2.5,5.2c0.6,1.7,5.5,4.1,5.5,4.1l-0.6-4.7l5.5-1.1l-0.8-0.8l-3.9-21.3
		c-1.1-1.9-4.7-3-4.7-3l13.3-13l3.3-0.3l-2.5-6.4C613.6,378.2,613.9,375.7,615,375.7z M585.4,368.3c1.1-0.3,2.5-0.6,2.5-0.6
		s-2.2-1.9-4.4-1.9c-0.8,0-1.4,0.3-2.2,0.6c-2.5,1.7-2.5,6.9-2.5,6.9L565,388.2l-5,0.8c0,0,5.8,0.3,7.5,2.5s1.7,3.6,1.7,3.6
		l4.1,17.4c0,0-3.3,3.3-2.2,5.2c1.7,1.9,6.6,3.9,6.6,3.9l-0.8-4.7l5.2-1.4l-0.8-0.8l-5-21c-1.1-1.9-4.7-2.8-4.7-2.8l12.4-13.5
		l3.3-0.6l-3-6.1C584.3,370.8,584.3,368.3,585.4,368.3z M644.8,394.2l-2.2-6.6c0,0,0.3-2.5,1.4-2.5c1.1,0,2.8-0.3,2.8-0.3
		s-2.2-2.5-4.7-2.5c-0.6,0-1.1,0-1.7,0.6c-2.5,1.4-3.3,6.9-3.3,6.9l-15.7,13.5l-5,0.3c0,0,6.1,1.1,7.5,3.3c1.4,2.2,1.4,3.9,1.4,3.9
		l2.5,18.2c0,0-3.6,3-2.8,5c0.3,1.4,5,4.1,5,4.1l-0.3-4.7l5.5-0.8l-0.8-0.8l-2.8-21.8c-1.1-2.2-4.4-3.3-4.4-3.3l14.1-12.4H644.8z
		 M475.5,408.3l-9.4-19.1c-1.7-1.7-5.2-1.7-5.2-1.7l8.8-15.7l3-1.1l-4.1-5.2c0,0-0.6-2.2,0.6-2.8c1.1-0.6,2.2-1.1,2.2-1.1
		s-1.7-0.8-3.6-0.8c-1.1,0-2.2,0.3-3,1.1c-1.9,2.2-1.1,7.2-1.1,7.2l-9.9,17.4l-3.9,1.4c0,0,1.7-0.3,3.3-0.3c1.7,0,3.3,0.3,4.4,1.1
		c1.9,1.7,2.5,3,2.5,3l7.7,15.7c0,0-2.5,4.1-1.1,5.5s6.6,2.5,6.6,2.5l-1.7-4.1l5-2.5L475.5,408.3z M659.5,421
		c-1.1-2.2-4.4-3.6-4.4-3.6l14.9-11.9h3.6l-1.9-6.9c0,0,0.3-2.5,1.7-2.5c1.1,0,2.8-0.3,2.8-0.3s-2.2-2.8-5-2.8c-0.6,0-1.1,0-1.7,0.3
		c-2.8,1.4-3.9,6.6-3.9,6.6L649,413h-5.2c0,0,6.1,1.4,7.2,3.9c1.4,2.5,1.1,3.9,1.1,3.9l1.4,18.5c0,0-3.9,3-3,5
		c1.1,2.5,5.8,5.5,5.8,5.5v-4.7l5.8-0.6l-0.8-1.1L659.5,421z M772.7,271c0,149.2-121.3,270.5-270.5,270.5S231.8,420.2,231.8,271
		S353.1,0.6,502.3,0.6S772.7,121.8,772.7,271z M764.4,271C764.4,126.3,647,8.8,502.3,8.8c-145,0-262.5,117.4-262.2,262.2
		c0,144.8,117.4,262.2,262.2,262.2S764.4,415.8,764.4,271z M697.3,407.5c1.1,0,2.8-0.3,2.8-0.3s-2.2-2.8-5-2.8c-0.6,0-1.1,0-1.7,0.3
		c-2.8,1.4-3.9,6.6-3.9,6.6l-16.6,13h-5.2c0,0,6.1,1.4,7.2,3.9c1.4,2.5,1.1,3.9,1.1,3.9l1.4,18.5c0,0-3.9,3-3,5
		c0.8,2.5,5.8,5.5,5.8,5.5v-4.7l5.8-0.6l-0.8-1.1l-1.7-22.4c-1.1-2.2-4.4-3.6-4.4-3.6l14.9-11.9h3.6l-1.9-6.9
		C695.7,410,696.2,407.5,697.3,407.5z M575.8,145.3l-7.7,16.3l-3,1.4l4.4,5c0,0,0.6,2.2-0.3,2.8c-1.1,0.6-2.2,1.4-2.2,1.4
		s1.7,0.8,3.3,0.8c1.1,0,2.2-0.3,3-1.4c1.7-2.2,0.6-7.5,0.6-7.5l9.1-18l4.4-2.2c0,0-2.2,0.6-4.4,0.6c-1.4,0-2.5-0.3-3.3-0.8
		c-2.2-1.4-2.8-3-2.8-3l-8.8-15.5c0,0,2.2-4.1,0.6-5.5c-1.4-1.4-6.9-1.9-6.9-1.9l1.9,4.1l-4.7,2.8l1.1,0.6l10.5,18.5
		C572.2,145.3,574.6,145.3,575.8,145.3z M530.2,369.7l-3.6-5.8c0,0-0.3-2.5,0.8-2.8c1.1-0.3,2.5-0.8,2.5-0.8s-1.9-1.4-4.1-1.4
		c-0.8,0-1.7,0.3-2.5,0.8c-2.2,1.9-1.7,7.2-1.7,7.2l-11.9,16l-4.7,1.7c0,0,0.3,0,0.8,0c1.7,0,5.5,0.3,6.9,1.7
		c1.9,1.9,2.2,3.3,2.2,3.3l6.1,16.6c0,0-2.8,3.6-1.7,5.2c1.1,1.7,6.4,3,6.4,3l-1.4-4.4l5-1.9l-1.1-0.8l-7.2-19.9
		c-1.4-1.9-5-2.2-5-2.2l10.8-14.6L530.2,369.7z M496.7,150.8c-1.7-1.9-2.2-3.3-2.2-3.3l-6.1-16.6c0,0,2.8-3.9,1.7-5.2
		c-1.1-1.7-6.4-3-6.4-3l1.4,4.4l-5,1.9l1.1,0.8l7.2,19.9c1.4,1.9,5,2.2,5,2.2l-10.8,14.6l-3.3,0.8l3.6,5.8c0,0,0.3,2.5-0.8,2.8
		c-1.1,0.3-2.5,0.8-2.5,0.8s1.7,1.1,3.9,1.1c0.8,0,1.7-0.3,2.5-0.8c2.2-1.9,1.9-7.2,1.9-7.2l11.9-16l4.7-1.4c0,0-0.3,0-0.8,0
		C502,152.5,498.1,152.2,496.7,150.8z M493.7,387.3c-1.7-1.7-5-1.9-5-1.9l9.9-15.2l3.3-0.8l-3.9-5.5c0,0-0.3-2.2,0.6-2.8
		c1.1-0.3,2.5-1.1,2.5-1.1s-1.9-1.1-3.9-1.1c-0.8,0-1.9,0.3-2.8,1.1c-1.9,1.9-1.4,7.2-1.4,7.2l-11.1,16.6l-4.7,1.7c0,0,1.1,0,2.2,0
		c1.9,0,4.4,0.3,5.5,1.1c1.9,1.7,2.2,3.3,2.2,3.3l6.9,16c0,0-2.5,3.9-1.4,5.5c1.4,1.7,6.6,2.8,6.6,2.8l-1.4-4.4l5-2.2l-1.1-0.6
		L493.7,387.3z M552,148.6c-1.9-1.7-2.5-3-2.5-3l-7.7-15.7c0,0,2.5-4.1,1.1-5.5s-6.6-2.5-6.6-2.5l1.7,4.1l-4.7,2.5l1.1,0.6l9.4,19.1
		c1.7,1.7,5.2,1.7,5.2,1.7l-8.8,15.7l-3.3,1.1l4.1,5.2c0,0,0.6,2.2-0.6,2.8c-1.1,0.3-2.2,1.1-2.2,1.1s1.1,0.8,3,0.8
		c1.1,0,2.2-0.3,3-1.1c1.9-2.2,1.1-7.2,1.1-7.2l9.9-17.1l4.4-1.9c0,0-1.7,0.3-3.6,0.3C554.5,149.5,552.8,149.2,552,148.6z
		 M556.7,364.1c1.1-0.3,2.5-0.8,2.5-0.8s-2.2-1.7-4.1-1.7c-0.8,0-1.7,0.3-2.2,0.8c-2.2,1.9-2.2,6.9-2.2,6.9l-13,15.5l-4.7,1.1
		c0,0,5.8,0,7.5,1.9c1.7,1.9,1.9,3.6,1.9,3.6l5,16.9c0,0-3,3.6-1.9,5.2c1.1,1.7,6.4,3.6,6.4,3.6l-1.1-4.4l5.2-1.7l-0.8-0.8
		l-6.1-20.4c-1.4-1.9-5-2.5-5-2.5l11.6-14.1l3.3-0.6l-3.3-6.1C555.6,366.6,555.6,364.1,556.7,364.1z M524.4,150.6
		c-1.9-1.7-2.2-3.3-2.2-3.3l-6.9-16c0,0,2.5-3.9,1.4-5.5c-1.4-1.7-6.6-2.8-6.6-2.8l1.7,4.4l-5,2.2l1.1,0.6l8.3,19.3
		c1.7,1.7,5,1.9,5,1.9l-9.9,15.2l-3.3,1.1l3.9,5.5c0,0,0.3,2.5-0.6,2.8c-1.1,0.3-2.5,1.1-2.5,1.1s1.7,1.1,3.6,1.1
		c0.8,0,1.9-0.3,2.8-1.1c1.9-1.9,1.4-7.2,1.4-7.2l11.1-16.6l4.7-1.7c0,0-1.1,0-2.2,0C528,151.7,525.5,151.4,524.4,150.6z"/>
	<path class="st2" d="M311.4,127.1l-1.9-6.9h3.6l14.9-11.9c0,0-3.3-1.4-4.4-3.6l-1.7-22.4l-0.8-1.1l5.8-0.6V76c0,0,4.7,3,5.5,5
		c0.8,1.9-3,5-3,5l1.4,18.5c0,0,0,1.4,1.4,3.9c1.1,2.5,7.2,3.9,7.2,3.9H334l-16.6,13c0,0-1.1,5.2-3.9,6.6c-3,1.7-6.6-1.9-6.6-1.9
		s1.7-0.3,2.8-0.3C310.8,129.6,311.4,127.1,311.4,127.1z M347.3,116c1.1,2.2,4.4,3.6,4.4,3.6l-14.9,11.9h-3.6l1.9,6.9
		c0,0-0.6,2.5-1.7,2.5c-1.1,0-2.8,0.3-2.8,0.3s3.3,3.9,6.4,2.2c2.8-1.4,3.9-6.6,3.9-6.6l16.6-13h5.2c0,0-6.1-1.4-7.2-3.9
		c-1.4-2.5-1.1-3.9-1.1-3.9l-1.4-18.5c0,0,3.9-3,3-5c-0.8-1.9-5.5-5-5.5-5v4.7l-5.8,0.6l0.8,0.8L347.3,116z M342.3,448.9l-14.9-16.6
		c-2.2-1.1-5.8-0.3-5.8-0.3l4.7-18.5l2.8-2.2l-5.8-4.1c0,0-1.1-2.2-0.3-3c0.8-0.8,1.9-1.9,1.9-1.9s-5.2-1.1-6.6,2.2
		c-1.4,2.8,1.1,7.7,1.1,7.7l-5.2,20.4l-3.9,3.3c0,0,5.5-2.5,8-1.4c2.5,1.1,3.3,2.5,3.3,2.5l12.4,13.8c0,0-1.4,4.7,0.6,5.8
		c1.9,1.1,7.5,0.6,7.5,0.6l-3-3.9l4.1-3.9L342.3,448.9z M368,435.7l-13.8-17.1c-1.9-1.4-5.5-0.6-5.5-0.6l5.5-18l3-1.9l-5.5-4.4
		c0,0-1.1-2.2,0-3c0.8-0.6,1.9-1.7,1.9-1.7s-5-1.4-6.6,1.7c-1.4,2.8,0.6,7.5,0.6,7.5l-6.4,19.9l-4.1,3c0,0,5.5-2.2,8-1.1
		c2.5,1.1,3.3,2.5,3.3,2.5l11.6,14.1c0,0-1.4,4.7,0.3,5.8c1.7,1.1,7.2,0.8,7.2,0.8l-2.8-3.9l4.4-3.6H368z M394.2,425.5l-12.7-17.7
		c-1.9-1.4-5.5-0.8-5.5-0.8l6.4-17.4l3-1.7l-5-4.7c0,0-0.8-2.2,0-2.8c0.8-0.6,2.2-1.7,2.2-1.7s-4.7-1.4-6.4,1.4
		c-1.7,2.5,0.3,7.5,0.3,7.5l-7.2,19.1l-4.1,2.8c0,0,5.5-1.9,8-0.6c2.2,1.4,3,2.8,3,2.8l10.5,14.6c0,0-1.7,4.4,0,5.8s7.2,1.4,7.2,1.4
		l-2.5-3.9l4.4-3.3L394.2,425.5z M361.9,143.1l2.2,6.6c0,0-0.3,2.5-1.4,2.5c-1.1,0-2.8,0.3-2.8,0.3s3.3,3.6,6.4,1.9
		c2.5-1.4,3.3-6.6,3.3-6.6l15.7-13.5l5-0.3c0,0-6.1-1.1-7.5-3.3c-1.4-2.2-1.4-3.9-1.4-3.9l-2.5-18c0,0,3.6-3,2.8-5
		c-0.8-1.9-5.8-4.7-5.8-4.7l0.3,4.7l-5.5,0.8l0.8,0.8l2.8,21.8c1.1,2.2,4.4,3.3,4.4,3.3l-14.1,12.4H361.9z M390.4,153.9l3,5.2
		c0,0-0.3,2.5-1.4,2.5c-1.1,0-2.5,0.6-2.5,0.6s3.6,3.3,6.4,1.7c2.5-1.7,3-6.9,3-6.9l14.6-14.1l5-0.6c0,0-5.8-0.8-7.5-2.8
		c-1.4-2.2-1.7-3.9-1.7-3.9l-3.3-17.7c0,0,3.3-3.3,2.5-5.2c-0.8-1.9-5.8-4.1-5.8-4.1l0.6,4.7l-5.5,1.1l0.8,0.8l3.9,21.3
		c1.1,2.2,4.7,3,4.7,3l-14.4,13.5L390.4,153.9z M610.3,111.6l12.7,17.7c1.9,1.4,5.5,0.8,5.5,0.8l-6.4,17.4l-3,1.7l5,4.7
		c0,0,0.8,2.2,0,2.8s-2.2,1.7-2.2,1.7s4.7,1.4,6.6-1.4c1.7-2.5-0.3-7.5-0.3-7.5l7.2-19.1l4.1-2.8c0,0-5.8,1.9-8,0.6s-3-2.8-3-2.8
		L618,110.8c0,0,1.7-4.4,0-5.8s-7.2-1.4-7.2-1.4l2.5,3.9l-4.4,3.3L610.3,111.6z M636.5,101.4l13.8,17.1c1.9,1.4,5.5,0.6,5.5,0.6
		l-5.5,18l-3,1.9l5.5,4.4c0,0,1.1,2.2,0,2.8c-0.8,0.6-1.9,1.7-1.9,1.7s5,1.4,6.4-1.7c1.4-2.8-0.6-7.5-0.6-7.5l6.1-19.9l4.1-3
		c0,0-5.5,2.2-8,1.1c-2.5-1.1-3.3-2.5-3.3-2.5L644,100.3c0,0,1.4-4.7-0.3-5.8c-1.7-1.1-7.2-0.8-7.2-0.8l2.8,3.9l-4.4,3.6
		L636.5,101.4z M584,119.6l11.6,18c1.9,1.4,5.5,1.1,5.5,1.1l-7.2,16.9l-3,1.7l4.7,5c0,0,0.8,2.2-0.3,2.8c-0.8,0.6-2.2,1.4-2.2,1.4
		s4.7,1.7,6.6-1.1c1.7-2.5,0.3-7.5,0.3-7.5l8-18.5l4.1-2.5c0,0-5.8,1.7-8,0.3s-2.8-2.8-2.8-2.8l-9.7-14.9c0,0,1.9-4.4,0.3-5.5
		c-1.7-1.4-6.9-1.7-6.9-1.7l2.2,4.1l-4.7,3L584,119.6z M420.5,417.4l-11.6-18c-1.9-1.4-5.5-1.1-5.5-1.1l7.2-16.9l3-1.4l-4.7-4.7
		c0,0-0.8-2.2,0.3-2.8c1.1-0.6,2.2-1.4,2.2-1.4s-4.7-1.7-6.6,1.1c-1.7,2.5-0.3,7.5-0.3,7.5l-8,18.5l-4.4,2.5c0,0,5.8-1.7,8-0.3
		c2.2,1.4,2.8,2.8,2.8,2.8l9.7,14.9c0,0-1.9,4.4-0.3,5.5c1.7,1.4,6.9,1.7,6.9,1.7l-2.2-4.1l4.7-3L420.5,417.4z M421.3,168.5
		c-1.1,0.3-2.5,0.6-2.5,0.6s3.9,3,6.4,1.1c2.2-1.7,2.8-6.9,2.8-6.9l13.8-14.9l5-0.8c0,0-5.8-0.3-7.5-2.5c-1.7-2.2-1.9-3.6-1.9-3.6
		l-4.1-17.4c0,0,3.3-3.3,2.2-5.2c-1.1-1.7-6.1-3.9-6.1-3.9l0.8,4.7l-5.2,1.4l0.8,0.8l5,21c1.4,1.9,4.7,2.8,4.7,2.8L423,159.1
		l-3.3,0.3l3,6.1C422.4,166,422.4,168.5,421.3,168.5z M450.3,173.2c-1.1,0.3-2.5,0.8-2.5,0.8s3.9,3,6.4,0.8c2.2-1.9,2.2-6.9,2.2-6.9
		l13-15.5l4.7-1.1c0,0-5.8,0-7.5-1.9c-1.7-1.9-1.9-3.6-1.9-3.6l-5-16.9c0,0,3-3.6,1.9-5.2c-1.1-1.7-6.1-3.6-6.1-3.6l1.1,4.4
		l-5.2,1.7l0.8,0.8l6.1,20.4c1.4,1.9,5,2.5,5,2.5l-11.6,14.1l-3.3,0.6l3.3,6.1C451.2,170.5,451.4,172.9,450.3,173.2z M662.8,87.6
		l14.9,16.6c2.2,1.1,5.8,0.3,5.8,0.3l-4.7,18.5l-3,2.2l5.8,4.1c0,0,1.1,2.2,0.3,3c-0.8,0.6-1.9,1.9-1.9,1.9s5,1.1,6.6-2.2
		c1.4-2.8-1.1-7.7-1.1-7.7l5.2-20.4l4.1-3.3c0,0-5.5,2.5-8,1.4c-2.5-1.1-3.3-2.5-3.3-2.5l-12.4-13.8c0,0,1.4-4.7-0.6-5.8
		s-7.5-0.6-7.5-0.6l3,3.9l-4.1,3.9L662.8,87.6z M583.2,368.3c1.1-0.3,2.5-0.6,2.5-0.6s-3.6-3-6.4-1.1c-2.2,1.7-2.5,6.9-2.5,6.9
		L563,388.4l-5,0.8c0,0,5.8,0.3,7.5,2.5s1.7,3.6,1.7,3.6l4.1,17.4c0,0-3.3,3.3-2.2,5.2c1.1,1.7,6.1,3.9,6.1,3.9l-0.8-4.7l5.2-1.4
		l-0.8-0.8l-5-21c-1.4-1.9-4.7-2.8-4.7-2.8l12.4-13.5l3.3-0.6l-3-6.1C582.1,371,582.1,368.5,583.2,368.3z M549.2,148.4
		c-1.9-1.7-2.5-3-2.5-3l-7.7-15.7c0,0,2.5-4.1,1.1-5.5c-1.4-1.4-6.6-2.5-6.6-2.5l1.7,4.1l-5,2.5l1.1,0.6l9.4,19.1
		c1.7,1.7,5.2,1.7,5.2,1.7l-8.8,15.7l-3,1.1l4.1,5.2c0,0,0.6,2.2-0.6,2.8c-1.1,0.3-2.2,1.1-2.2,1.1s4.1,2.2,6.6-0.3
		c1.9-2.2,1.1-7.2,1.1-7.2l9.9-17.1l4.4-1.9C557.2,148.9,551.4,150,549.2,148.4z M573.5,145.3l-8,16.3l-3,1.4l4.4,5
		c0,0,0.6,2.2-0.3,2.8c-0.8,0.6-2.2,1.4-2.2,1.4s4.4,1.9,6.6-0.6c1.7-2.2,0.6-7.5,0.6-7.5l9.1-18l4.4-2.2c0,0-5.8,1.4-7.7-0.3
		c-2.2-1.4-2.8-3-2.8-3l-8.8-15.5c0,0,2.2-4.1,0.6-5.5c-1.4-1.4-6.9-1.9-6.9-1.9l1.9,4.1l-4.7,2.8l1.1,0.6l10.5,18.5
		C569.9,145.6,573.5,145.3,573.5,145.3z M612.5,375.5c1.1,0,2.5-0.6,2.5-0.6s-3.6-3.3-6.4-1.7c-2.5,1.7-3,6.9-3,6.9l-14.6,14.1
		l-5,0.6c0,0,6.1,0.8,7.5,2.8c1.4,2.2,1.7,3.9,1.7,3.9l3.3,17.7c0,0-3.6,3.3-2.5,5.2c0.8,1.9,5.8,4.1,5.8,4.1l-0.6-4.7l5.5-1.1
		l-0.8-0.8l-3.9-21.3c-1.1-1.9-4.7-3-4.7-3l13.3-13l3-0.3l-2.5-6.4C611.1,377.9,611.4,375.5,612.5,375.5z M694.5,407.8
		c1.1,0,2.8-0.3,2.8-0.3s-3.3-3.9-6.4-2.2c-2.8,1.4-3.9,6.6-3.9,6.6l-16.6,13h-5.2c0,0,6.1,1.4,7.5,3.9c1.4,2.5,1.1,3.9,1.1,3.9
		l1.4,18.5c0,0-3.9,3-3,5c0.8,1.9,5.5,5,5.5,5v-4.7l5.8-0.6l-0.8-1.1l-1.7-22.4c-1.1-2.2-4.4-3.6-4.4-3.6l14.9-11.9h3.6l-1.9-6.9
		C693.2,409.9,693.5,407.8,694.5,407.8z M642.3,393.7l-2.2-6.6c0,0,0.3-2.5,1.4-2.5c1.1,0,2.8-0.3,2.8-0.3s-3.3-3.6-6.4-1.9
		c-2.5,1.4-3.6,6.9-3.6,6.9l-15.7,13.5l-5,0.3c0,0,6.1,1.1,7.5,3.3c1.4,2.2,1.4,3.9,1.4,3.9l2.5,18.2c0,0-3.6,3-2.8,5
		c0.8,1.9,5.8,4.7,5.8,4.7l-0.3-4.7l5.5-0.8l-0.8-0.8l-2.8-21.8c-1.1-2.2-4.4-3.3-4.4-3.3l14.1-12.4L642.3,393.7z M657,421
		c-1.1-2.2-4.4-3.6-4.4-3.6l14.9-11.9h3.6l-1.9-6.9c0,0,0.6-2.5,1.7-2.5c1.1,0,2.8-0.3,2.8-0.3s-3.3-3.9-6.4-2.2
		c-2.8,1.4-3.9,6.6-3.9,6.6l-16.6,13h-5.2c0,0,6.1,1.4,7.2,3.9c1.4,2.5,1.4,3.9,1.4,3.9l1.4,18.5c0,0-3.9,3-3,5c0.8,1.9,5.5,5,5.5,5
		v-4.7l5.8-0.6l-1.1-0.8L657,421z M473.3,408.1l-9.4-19.1c-1.7-1.7-5.2-1.7-5.2-1.7l8.8-15.7l3.3-1.1l-4.1-5.2c0,0-0.6-2.2,0.6-2.8
		c1.1-0.6,2.2-1.1,2.2-1.1s-4.1-2.2-6.4,0.3c-1.9,2.2-1.1,7.2-1.1,7.2l-9.9,17.4l-4.4,1.9c0,0,5.8-0.8,7.7,0.8c1.9,1.7,2.5,3,2.5,3
		l7.7,15.7c0,0-2.5,4.1-0.8,5.5c1.4,1.4,6.6,2.5,6.6,2.5l-1.9-4.1l5-2.5L473.3,408.1z M499.5,406.9l-8.3-19.6c-1.7-1.7-5-1.9-5-1.9
		l9.9-15.2l3.3-0.8l-3.9-5.5c0,0-0.3-2.2,0.6-2.8c1.1-0.3,2.5-1.1,2.5-1.1s-4.1-2.5-6.4,0c-1.9,1.9-1.4,7.2-1.4,7.2l-11.1,16.6
		l-4.7,1.7c0,0,5.8-0.6,7.7,1.1s2.2,3.3,2.2,3.3l6.9,16c0,0-2.5,3.9-1.4,5.5c1.4,1.7,6.6,2.8,6.6,2.8l-1.7-4.4l5-2.2L499.5,406.9z
		 M446.7,411.4l-10.5-18.5c-1.7-1.7-5.2-1.4-5.2-1.4l8-16.3l3-1.4l-4.4-5c0,0-0.6-2.2,0.3-2.8c1.1-0.6,2.2-1.4,2.2-1.4
		s-4.4-1.9-6.4,0.6c-1.9,2.2-0.6,7.5-0.6,7.5l-9.1,18l-4.4,2.2c0,0,5.8-1.4,7.7,0.3c2.2,1.4,2.8,3,2.8,3l8.8,15.5
		c0,0-2.2,4.1-0.8,5.5s6.9,1.9,6.9,1.9l-1.9-4.1l4.7-2.8L446.7,411.4z M492,147.5L486,131c0,0,2.8-3.9,1.7-5.2c-1.1-1.7-6.4-3-6.4-3
		l1.4,4.4l-5,1.9l1.1,0.8l7.2,19.9c1.4,1.9,5,2.2,5,2.2l-10.8,14.6l-3.3,0.8l3.6,5.8c0,0,0.3,2.5-0.8,2.8c-1.1,0.3-2.5,0.8-2.5,0.8
		s4.1,2.8,6.4,0.6c2.2-1.9,1.9-7.2,1.9-7.2l11.9-16l4.7-1.4c-0.3-0.3-6.1,0-7.7-1.9C492.3,148.9,492,147.5,492,147.5z M527.7,369.7
		l-3.6-5.8c0,0-0.3-2.5,0.8-2.8c1.1-0.3,2.5-0.8,2.5-0.8s-4.1-2.8-6.6-0.3c-2.2,1.9-1.9,7.2-1.9,7.2l-11.9,16l-4.7,1.4
		c0,0,5.8-0.3,7.7,1.7c1.9,1.9,2.2,3.3,2.2,3.3l6.1,16.6c0,0-2.8,3.6-1.7,5.2c1.1,1.7,6.4,3,6.4,3l-1.4-4.4l5-1.9l-0.8-0.8
		l-7.2-19.9c-1.4-1.9-5-2.2-5-2.2l10.8-14.6L527.7,369.7z M556.7,372.4l-3.3-6.1c-0.3,0.3-0.3-2.2,0.8-2.5c1.1-0.3,2.5-0.8,2.5-0.8
		s-3.9-3-6.4-0.8c-2.2,1.9-2.2,6.9-2.2,6.9l-12.7,15.5l-4.7,1.1c0,0,5.8,0,7.5,1.9c1.7,1.9,1.9,3.6,1.9,3.6l5.2,16.9
		c0,0-3,3.6-1.9,5.2c1.1,1.7,6.1,3.6,6.1,3.6l-1.1-4.4l5.2-1.7l-0.8-0.8l-6.1-20.4c-1.4-1.9-5-2.5-5-2.5l11.6-14.1L556.7,372.4z
		 M521.9,150.6c-1.9-1.7-2.2-3.3-2.2-3.3l-6.9-16c0,0,2.8-3.9,1.4-5.5s-6.6-2.8-6.6-2.8l1.7,4.4l-5,2.2l1.1,0.6l8.3,19.3
		c1.7,1.7,5,1.9,5,1.9l-9.7,15.2l-3.3,1.1l3.9,5.5c0,0,0.3,2.5-0.6,2.8c-1.1,0.3-2.5,1.1-2.5,1.1s4.1,2.5,6.6,0
		c1.9-1.9,1.4-7.2,1.4-7.2l11.1-16.6l4.7-1.7C529.6,151.7,523.5,152.2,521.9,150.6z"/>
</g>
<g id="XMLID_1_">
	<path class="st0" d="M197,373.8c2.5,6.4,10.5,16.6,13.8,19.9c-6.4,6.1-21.3,24.3-18.2,40.9l-77.6,30.1c-1.6-1.7-3.1-3.7-4.7-5.9
		l-1.9,0.7l-2.8-3c-7.2-7.5-18.8-12.2-29.8-12.2c-0.8,0-1.9,0-2.8,0l-6.4,0.6l-0.3-6.4c0-1.4,0-2.5,0-3.9c0-4.4,0-8.3-2.5-14.6
		c-1.4-3-6.4-14.9-12.4-29.8c-13.5-32.9-32-77.6-34.8-85.1c-4.4-11.9-8.8-18.8-11.3-21L0,279.3l5.5-4.4c8.6-6.6,13.8-23.2,13.3-29.3
		l-0.6-4.7l4.4-1.7l69.9-24.6l3-1.1l2.5,1.9c5.2,4.1,21.5,9.4,33.2,11.9l5.5,1.1l-0.4,2.7c2.9,0.7,5.7,1.2,8.4,1.7
		c-1.1,7.7-0.6,15.5,1.1,20.2c1.7,4.4,16.9,40.9,16.9,40.9l-49.2,18l-2.9-6.9l-4.8,1.9l-2.2-5.5l-14.2-34.9l-11.3-3L74,284.3
		l51,126.6l8.9,2.9l9.1-17.7l-9.3-24.3l-8.1,3l-2.7-6.7l-5,2l-2.2-5.5l-11.9-29.6l-2.2-5.8l5.8-2.2l49.5-18.8l5.5-2.2l2,5l6.8-2.5
		C171.3,308.6,195,367.4,197,373.8z M1015.1,278.9l1.1-1.5l-3.3-3.6c-7.2-8.8-16.3-24.9-18-32l-0.8-3l-3-1.1l-65.8-23.8l-4.4-1.7
		l-2.8,3.9c-2.8,4.4-18.2,13-29.8,13h-0.3h-7.2l1.1,7.2c0.6,4.1-1.4,14.6-4.1,23.2c0,0.3-0.3,0.6-0.3,0.8c-1.4,2.5-4.1,8.3-8.3,20.4
		c-1.1,2.2-8.3,18.8-9.9,21.8c-2.5,5-3.9,6.9-4.4,7.5l-5.8,4.7l6.4,4.4l0.4,0.3c-0.9,1.2-2,2.5-3.2,3.8l65,51.2l-13.1,34.4
		l-16.2,6.7l-3.9-8l13.3-34.8l-6.8-2.6l1.8-4.6l-5.5-2.2L849,348.7l-5.8-2.2l-2.2,5.8c-3,8.3-6.4,15.7-7.5,19.1
		c-0.3,0.8-0.6,1.7-0.8,1.9c-1.1,2.8-6.6,10.8-10.8,15.5l-4.1,4.7l4.7,3.9c9.1,7.5,15.5,20.2,15.5,32v4.1l3.2,1.2
		c0,2.1-0.1,4.3-0.2,6.6l74.3,29c5.8-10.5,24.3-16.9,41.4-17.7c0-7.2-0.3-14.4,2.8-23.8c0,0,12.7-33.4,18.5-47.8
		c2.8-6.4,5-11.1,9.1-16l-4.9-3.9l3.2-1.9l-8-4.7L921.8,309l15.6-37.4l15.6-6.2l4.3,6.7l-12.4,34l-1.9,5.5l5.1,2l-2.3,6.5l49.7,19.3
		c0,0,10.5-28.2,12.7-34.8c2.2-6.6,8-13.3,13-19.1C1019.7,284.4,1017.6,282,1015.1,278.9z M661.9,337.1c-0.6,7.5,0.8,13.8,8.3,21
		c-3.6,4.4-16,23.5-19.3,36.5l-43.1-5l-2.7-7.6l-3.1-0.4l-1.4-3.6c-0.4-0.9-22.6-64.1-33.7-95.9c0.1,2.3,0.1,4.2,0,5.3
		c-1.4,20.2-2.8,39-2.8,39c-0.3,4.3,1.1,11.2,4.5,17.1l1.6,1.2l-0.5,0.7c1.9,2.8,4.3,5.2,7.1,6.8c-5.2,6.9-16.3,20.2-18,34.3
		l-48.6-0.8c-0.5-2.9-1-5.4-1.5-7.7H505l-0.8-5c-1.4-8.4-3.9-14.4-7.7-20.8c-3.5,5.6-9.7,17.9-9.7,32.4l-53.3,3.3
		c-0.2-1.6-1-4-2.3-6.8l-3.8,0.2l-1.4-4.7c-0.8-3.3-10.2-19.1-13.8-22.9l-4.7-5l4.7-4.4c5.5-4.4,6.9-9.1,4.1-16.9
		c-0.3-1-0.9-3.1-1.6-5.5l-36.5,4.7c0,5-0.3,9.9-0.6,12.4c-0.3,5.2,1.5,9,4.2,11.9l0.5,0.3l-0.1,0.2c2.4,2.4,5.4,4.1,8.4,5.6
		c-4.4,9.4-9.1,21.8-8.6,36.5l-57.7,8.3c-0.1-2.3-0.6-4.8-1.4-7.4l-5.5,0.8l-1.1-5.8c-1.1-6.1-4.4-12.1-7.7-17.1
		c-5.5,10.4-8,18.8-3.4,33.4l-53,13.3c-0.7-2.7-1.4-5.2-2.2-7.5l-0.3,0.1l-5.8,1.4l-1.7-5.8c0,0-1.9-6.1-5.8-11.1
		c-4.1-5-10.2-8.8-10.2-8.8l-6.6-3.6l5.2-5.2c0.6-0.6,2.2-3.3,3.9-9.7c1.7-6.4,0.3-14.1,0-15.2l-28.2-106.6c-0.6-2.2-3-8.6-6.1-12.4
		c-2.5-3-8-6.1-9.9-7.2l-8-4.1l6.4-5.2c0.6-0.8,1.7-3.6,3-9.7c2.2-8.8,1.4-13.5,1.4-13.5l-1.4-6.1l6.1-1.4l42.8-9.9l5.8-1.4l1.3,5.5
		c4.1-1,6.7-1.6,6.7-1.7c2.3,9.6,8.1,17.7,13.9,23.1l1.6,0.4l-0.4,0.6c2.7,2.3,5.4,4,7.6,5c-6.4,8.8-12.4,18.2-9.4,30.7
		c3,12.4,27.4,102.2,28.2,105.5c2.2,8.1,6.4,13.3,12.5,17.6l3.5-3.5c6.1-5.5,9.1-12.2,11.9-26c1.7-8.3,5.8-43.9,9.1-72.7
		c3-26.2,4.7-42.3,5.5-46.1c1.4-7.7,0.8-13-2.5-16.9l-3.3-4.1l3.6-3.9c5.8-6.9,9.9-15.7,11.1-24.9l0.6-4.7l4.7-0.6l59.1-5.5l4.7-0.6
		l1.7,4.4c0,0.1,0.1,0.2,0.1,0.2l5.4-0.5c4.1,15.5,15.2,26.2,21.5,31.5c-6.6,8-4.7,16.9-3,22.1c6.4,18.8,39.2,110.2,41.4,114.9
		c2.9,6.4,8.2,12.4,13.7,17.3l4-3c3.6-2.8,11.6-10.2,12.4-21.3c0-3.9,1.9-30.9,3.6-57.2c1.7-25.1,3.3-49.7,3.6-53.6
		c0.6-7.5,0.3-15.5-7.5-21.8l-4.1-3.3l3-4.7c5.8-9.1,10.2-18,11.1-23.2l0.8-5h5.2l41.7,0.6h4.1l1.4,3.9c0,0.1,0.2,0.7,0.6,1.8
		l7.1,0.1l32,90.5c0.6-8.5,1.1-16.4,1.4-22.6c0.6-6.1,0.8-10.8,0.8-12.2c0.6-8.8-1.7-14.1-9.7-21.3l-3.9-3.6l3-4.4
		c5-6.6,8.8-18.5,10.8-24.3l1.7-4.7l4.7,0.6l43.9,4.1l4.7,0.6l0.8,4.7c0,0.2,0.1,0.3,0.1,0.5l6.3,0.6c0.8,13.5,6.6,28.7,10.8,36.7
		c-9.9,7.2-15.7,13.5-16.6,25.7L661.9,337.1z M399.2,273c-2.8-8.1-7.6-21.2-11.4-31.6c-0.4,3.6-0.7,7-1,9
		c-0.6,3.9-2.5,16.8-3.6,24.4L399.2,273z M829.6,261.6l0.8-0.3c1.4,2.8,2.6,5.6,3.6,8.3c0.3,0.3,37.3-12.2,37.3-12.2
		c-2-3.9-4.1-8.2-5.9-12.7l0.1-0.3l-0.7-1.1c-6-14.8-10.4-31.8-9-44.2l-8.1-1.7c-0.1-0.7-0.2-1.1-0.2-1.1l-0.3-4.4l-4.4-0.8
		l-114.9-24l-3.9-0.8l-2.2,3c0,0-8,10.8-15.2,18.2c-10.5,10.8-19.3,16.9-19.6,16.9l-6.4,4.1l5.5,5.2l0.2,0.2
		c-1.3,0.9-2.6,1.8-3.8,2.6l30.1,28.7c11.1-10.4,25.7-16.9,36.6-18.6l-25.2,110.3c-0.3,0.8-2.5,8.6-6.9,13.3c-4.4,5-7.2,6.6-7.7,6.9
		l-7.2,2.5l4.4,6.4c0,0,0.2,0.4,0.5,1c-0.1,0-0.2,0.1-0.3,0.1c1.1,2.1,2.1,4.2,3.1,6.1c0.6,1.7,1.2,3.5,1.6,5.5
		c1.4,6.4,0,12.4,0,12.4l-1.1,5.8l4.5,1.1c-0.3,2.3-0.9,4.7-1.7,7.2l51.1,11.9c2.8-15.5,11.1-23.5,22.4-30.9c-1.9-2-3.5-4.4-4.8-7
		l1.2-0.8l-2.6-2.6c-2.3-6.3-2.9-13.4-1.5-19.5l29-122.7c7.7,4,15.3,14.4,20.8,24.7L829.6,261.6z"/>
	<path class="st2" d="M296.2,360.8l5.7,1.7l-3.5,6.3c0,0-3.6,6.1-4.7,12.7c-1.1,6.1,0.3,12.4,0.3,12.4l1.4,5.8l-5.8,1.4l-39.8,9.9
		l-5.8,1.4l-1.7-5.8c0,0-1.9-6.1-5.8-11.1c-4.1-5-10.2-8.8-10.2-8.8l-6.6-3.6l5.2-5.2c0.6-0.6,2.2-3.3,3.9-9.7
		c1.7-6.4,0.3-14.1,0-15.2l-28.2-106.6c-0.6-2.2-3-8.6-6.1-12.4c-2.5-3-8-6.1-9.9-7.2l-8-4.1l6.4-5.2c0.6-0.8,1.7-3.6,3-9.7
		c2.2-8.8,1.4-13.5,1.4-13.5l-1.4-6.1l6.1-1.4l42.8-9.9l5.8-1.4l1.4,5.8c0,0,1.4,4.7,7.2,11.9c4.1,5,6.1,6.9,6.9,7.5l8,2.2l-5.5,7.2
		c-1.4,1.7-5,6.9-5.8,10.8c-1.1,4.7-0.3,11.1,0,13.5l27.9,106.6c0.3,0.8,3,8.6,7.5,13.3C292.8,358.9,295.6,360.5,296.2,360.8z
		 M188.4,370.8c-1.9-4.7-23.5-58.6-23.8-59.1l-2.2-5.5l-5.5,2.2l-49.5,18.8l-5.8,2.2l2.2,5.8l11.9,29.6l2.2,5.5l5.5-2.2l7.7-2.8
		l11.9,30.9l-9.1,17.7l-18.5-6.1L63.5,278.2l7.5-19.9l17.1,5l15.5,38.1l2.2,5.5l5.5-2.2l35.6-13.5l5.8-2.2l-2.2-5.8
		c0-0.3-11.6-28.7-13.5-34c-1.7-4.7-1.7-10.8-1.1-14.9l0.8-5.8l-5.5-1.1c-11.6-2.5-27.9-7.7-33.2-11.9l-2.5-1.9l-3,1.1l-69.9,24.6
		l-4.4,1.7l0.6,4.7c0.6,6.1-4.7,22.7-13.3,29.3L0,279.3l5.2,4.7c2.5,2.2,6.9,9.1,11.3,21c2.8,7.5,21.3,52.2,34.8,85.1
		c6.1,14.9,11.1,26.8,12.4,29.8c2.5,6.4,2.5,10.2,2.5,14.6c0,1.4,0,2.5,0,3.9l0.3,6.4l6.4-0.6c0.8,0,1.9,0,2.8,0
		c11.1,0,22.7,4.7,29.8,12.2l2.8,3l3.9-1.4l68.5-26.5l4.1-1.7l-1.1-4.1c-0.6-10.8,8.3-25.4,14.9-31.5l4.7-4.4l-4.7-4.4
		C192.6,379.6,189.5,373.2,188.4,370.8z M301.9,362.6l0.2,0L301.9,362.6L301.9,362.6z M1012.8,273.8c-7.2-8.8-16.3-24.9-18-32
		l-0.8-3l-3-1.1l-65.8-23.8l-4.4-1.7l-2.8,3.9c-2.8,4.4-18.2,13-29.8,13h-0.3h-7.2l1.1,7.2c0.6,4.1-1.4,14.6-4.1,23.2
		c0,0.3-0.3,0.6-0.3,0.8c-1.4,2.5-4.1,8.3-8.3,20.4c-1.1,2.2-8.3,18.8-9.9,21.8c-2.5,5-3.9,6.9-4.4,7.5l-5.8,4.7l6.4,4.4l64.1,50.6
		l-14.9,39.2l-16.9,6.9l-8-16l10.8-28.7l2.2-5.5l-5.5-2.2L849,348.7l-5.8-2.2l-2.2,5.8c-3,8.3-6.4,15.7-7.5,19.1
		c-0.3,0.8-0.6,1.7-0.8,1.9c-1.1,2.8-6.6,10.8-10.8,15.5l-4.1,4.7l4.7,3.9c9.1,7.5,15.5,20.2,15.5,32v4.1l3.9,1.4l64.9,25.4l4.1,1.7
		l2.8-3.3c6.9-8.3,23.2-12.7,32.3-13h6.4l-0.3-6.4c-0.3-6.9,1.7-14.6,2.5-18l15.2-40.3c1.1-2.8,4.4-11.1,6.4-14.4
		c0.8-1.7,1.7-2.8,1.9-3l7.5-4.4l-8-4.7l-61.6-50.3l16.6-41.2l15.7-5.2l9.1,14.4l-12.4,34l-1.9,5.5l5.5,2.2l36.5,14.6l5.8,2.2
		l2.2-5.8l11.1-30.4c1.4-3.9,3-5.8,5.5-8.6c1.1-1.4,2.5-2.8,3.9-4.7l2.8-3.9L1012.8,273.8z M485.4,339.5l5.2,3.6l-3.9,5
		c-1.9,2.5-6.6,14.6-7.5,24.6l-0.3,5.2l-5.2,0.3l-41.4,2.5l-5,0.3l-1.4-4.7c-0.8-3.3-10.2-19.1-13.8-22.9l-4.7-5l4.7-4.4
		c5.5-4.4,6.9-9.1,4.1-16.9c-0.6-1.9-2.5-8.3-3.9-13l-43.1,5.2c0,4.7-0.3,10.8-0.6,13.3c-0.8,6.6,2.2,12.2,8.3,15.5l5.2,2.8
		l-2.5,5.2c-4.4,9.7-6.1,16.6-6.4,25.4l-0.3,5l-5,0.8l-45,6.6l-5.8,0.8l-1.1-5.8c-1.7-8.8-7.7-17.4-11.9-23.2l-2.4-3.2l0.4,0.1
		l-0.3-0.3l3.9-3.9c6.1-5.5,9.1-12.2,11.9-26c1.7-8.3,5.8-43.9,9.1-72.7c3-26.2,4.7-42.3,5.5-46.1c1.4-7.7,0.8-13-2.5-16.9l-3.3-4.1
		l3.6-3.9c5.8-6.9,9.9-15.7,11.1-24.9l0.6-4.7l4.7-0.6l59.1-5.5l4.7-0.6l1.7,4.4c4.4,11.3,9.4,17.1,15.7,22.4l4.4,3.6l-3.6,4.7
		c-2.8,3.6-2.8,9.4-0.3,17.4c5.5,16.3,39.2,109.7,41.4,114.9C473.5,327.9,478.2,334,485.4,339.5z M399.2,273
		c-4.4-12.7-13.5-37.6-16.6-45.3c-1.4,8-4.7,32.3-6.9,47.8L399.2,273z M829.6,261.6l5.8-1.9l25.1-8.8l2.2-0.8l1.1-2.2l1.7-3.3
		l-1.9-3c-0.3-0.3-6.9-10.2-11.6-24c-3.3-9.4-4.1-21-4.4-21l-0.3-4.4l-4.4-0.8l-114.9-24l-3.9-0.8l-2.2,3c0,0-8,10.8-15.2,18.2
		c-10.5,10.8-19.3,16.9-19.6,16.9l-6.4,4.1l5.5,5.2l19.1,18l4.1,3.9l4.1-4.1c9.9-9.4,21.3-14.1,35.1-14.1c0.8,0,1.7,0,2.8,0
		l-27.4,119.6c-0.3,0.8-2.5,8.6-6.9,13.3c-4.4,5-7.2,6.6-7.7,6.9l-7.2,2.5l4.4,6.4c0,0,3.6,6.1,5,12.7c1.4,6.4,0,12.4,0,12.4
		l-1.1,5.8l5.8,1.4l37.8,8.8l5.8,1.4l1.4-5.8c0,0,1.7-6.1,5.5-11.1c4.1-5.2,9.9-9.1,9.9-9.1l6.4-4.1l-5-5c-0.3-0.6-2.2-3.3-3.9-9.7
		c-1.7-6.4-0.6-14.4-0.3-15.2l28.2-120.7c10.2,5,21.5,14.4,26,27.6L829.6,261.6z M668.9,163.6l-0.8-4.7l-4.7-0.6l-43.9-4.1l-4.7-0.6
		l-1.7,4.7c-1.9,5.8-5.8,17.7-10.8,24.3l-3,4.4l3.9,3.6c8,7.2,10.2,12.4,9.7,21.3c0,1.4-0.3,6.1-0.8,12.2
		c-0.6,10.2-1.7,25.1-2.5,39.8c-4.1-11.3-38.4-108.6-38.7-109.7l-1.4-3.9h-4.1l-41.7-0.6h-5.2l-0.8,5c-0.8,5.2-5.2,14.1-11.1,23.2
		l-3,4.7l4.1,3.3c7.7,6.4,8,14.4,7.5,21.8c-0.3,3.9-1.9,28.5-3.6,53.6c-1.7,26.2-3.6,53.3-3.6,57.2c-0.8,11.1-8.8,18.5-12.4,21.3
		l-4.4,3.3l3,4.7c5.2,8,8.6,14.6,10.2,24.9l0.8,5h5l37,0.6h4.7l1.1-4.7c1.9-7.7,5-11.9,10.2-19.1c1.1-1.4,2.2-3,3.6-5l3.6-5l-5-3.6
		c-5.5-3.9-9.1-14.6-8.6-21.8c0.3-3.3,1.9-29.8,3.9-55.3c0.3,0.3,0.3,0.8,0.3,1.1c3.6,9.9,39.2,111.9,39.8,113l1.4,3.6l3.9,0.6
		L639,386l5,0.6l1.7-4.7c3-9.1,10.8-22.1,14.4-26.8l3.6-4.4l-4.4-3.9c-3.3-3-5-9.1-4.4-16.9c0.3-2.5,1.1-17.1,2.2-35.1
		c1.9-28.2,4.1-64.6,5-74.9c0.8-12.4,7.7-19.1,13-22.9l4.1-3l-2.5-4.7C673.3,182.6,670.2,173.2,668.9,163.6z"/>
	<path class="st3" d="M288.4,380.4c-1.4,7.7,0.3,14.9,0.3,14.9l-39.8,9.9c0,0-1.9-7.2-6.9-13.3c-5-6.1-11.9-10.2-11.9-10.2
		s2.5-3,5-12.2c2.2-8.3,0-18,0-18l-28.5-106.9c0,0-2.8-8.8-7.2-14.6c-3.9-4.7-11.9-8.8-11.9-8.8s1.7-1.4,4.1-12.4
		c2.5-10.8,1.4-16.3,1.4-16.3l42.8-9.9c0,0,1.4,5.5,8.3,14.1c7.2,8.6,9.4,9.1,9.4,9.1s-5.2,7.2-6.6,13c-1.7,7.2,0,16.3,0,16.3
		l28.2,106.1c0,0,2.8,9.4,8.8,15.7c6.4,6.9,10.2,8.3,10.2,8.3S289.8,372.7,288.4,380.4z M159.1,314.1l-49.5,18.8l11.9,29.6l13.3-5
		l15.2,39.2l-13,24.6l-26-8.6L57.2,278.5l10.2-27.4l25.1,7.2l16.6,40.6l35.6-13.5c0,0-11.6-28.7-13.5-34.3
		c-1.9-5.8-1.9-12.7-1.4-17.7c-11.6-2.5-29-7.7-35.6-13l-69.9,24.6c0.8,8-5.2,26.5-15.5,34.8c4.1,3.9,8.8,12.7,13,23.5
		c3.9,10.8,43.1,105.3,47,114.9s2.8,14.6,3,20.7c13.8-1.1,28.5,4.7,37.3,14.1l68.5-26.5c-0.6-13,9.4-29.3,16.9-36.2
		c-5.8-5.5-9.7-11.9-11.6-16.6C181,368.3,159.1,314.1,159.1,314.1z M858.7,245.1c0,0-7.2-10.5-12.4-25.4
		c-3.6-10.2-4.7-22.7-4.7-22.7l-114.9-24c0,0-8.3,11.1-15.7,18.8c-11.1,11.3-20.4,17.7-20.4,17.7l19.1,18
		c16.9-16,35.4-17.1,49.2-15.2l-29,126.5c0,0-2.8,9.7-8.3,16c-6.4,6.9-9.9,8.3-9.9,8.3s4.1,6.9,5.8,14.6c1.7,7.7,0,14.9,0,14.9
		l37.8,8.8c0,0,1.9-7.2,6.6-13.5c4.7-6.1,11.6-10.5,11.6-10.5s-2.8-3-5.2-11.9c-2.2-8.3-0.6-18-0.6-18l29.8-127.9
		c14.4,4.7,30.4,16.9,35.9,34L858.7,245.1z M988.8,243.1L923,219.4c-4.4,6.6-22.1,16-35.4,15.7c0.8,5.8-1.4,17.4-4.7,26.5
		c-0.6,1.1-3.6,6.4-8.8,21c0,0-8.3,18.8-10.2,22.4c-3.9,7.2-5.2,8.8-5.2,8.8l67.7,53.3l-17.4,46.1l-24.6,9.9l-11.6-23.5l11.9-31.2
		l-38.1-14.6c-4.1,10.5-8,19.9-8.3,20.7c-1.4,3.9-8,12.7-11.6,17.1c10.8,8.8,17.7,23.8,17.7,36.5l64.9,25.4
		c8.3-9.9,26.5-14.9,36.7-15.2c-0.6-8,1.9-16.9,2.8-20.2l15.2-40.6c0,0,4.1-10.8,6.6-15.2c2.2-3.9,2.8-4.4,2.8-4.4l-65.2-52.2
		l19.3-48.1l22.9-7.7l13.3,21l-13.3,36.7l36.5,14.6l11.1-30.4c2.5-6.9,6.6-9.7,9.9-14.6C1000.7,268.3,991,251.1,988.8,243.1z
		 M618.8,160.2c-2.8,8.3-6.6,19.1-11.6,26c9.1,8.3,12.2,15.2,11.6,26.2c-0.3,4.1-1.9,31.5-3.6,56.6c-0.6,8.8-1.4,18.2-1.9,25.4
		c0,0-6.4-19.6-9.4-28.2c-3-8.6-39-110.2-39-110.2l-41.7-0.6c-1.4,6.6-6.4,16.9-11.9,25.4c10.5,8.6,10.2,19.6,9.7,27.1
		c-0.6,7.7-6.6,103-7.2,110.8c-0.8,12.4-9.1,21.3-14.6,25.4c5.5,8.3,9.4,15.7,11.1,27.1l37,0.6c2.8-10.5,7.5-15.5,14.9-26
		c-7.5-5.2-11.9-18.2-11.1-27.1c0.3-3.6,1.9-29.8,3.9-55.3c0.8-10.5,1.4-24.6,1.9-33.2c0,0,6.4,22.7,10.2,32.6
		c3.6,9.9,39.8,113,39.8,113l33.2,3.9c3.3-9.7,11.3-23.5,15.5-28.5c-5.2-4.7-7.2-12.7-6.6-21.8c0.6-6.4,6.1-93.1,7.2-110
		c1.1-14.6,9.4-22.7,15.5-27.4c-4.7-8.8-7.5-19.6-8.8-28.2L618.8,160.2z M482.1,344.2c-2.8,3.6-8,17.4-8.6,27.9l-41.4,2.5
		c-1.1-4.7-11.3-21.3-15.2-25.4c7.5-5.5,9.9-13.3,6.4-23.8c-0.8-2.8-5.2-17.7-5.2-17.7l-53.3,6.6c0,0,0,14.1-0.6,17.7
		c-1.1,8.8,2.8,17.1,11.6,21.5c-4.7,10.2-6.6,18-6.9,27.9l-45,6.6c-1.9-9.7-7.5-18.5-13-25.7c7.2-6.9,10.5-14.4,13.5-29.3
		c3-14.6,13-110,14.6-118.5c1.7-8.6,1.1-16-3.9-21.8c7.2-8.3,11.3-18.5,12.7-27.9l59.1-5.5c4.4,11.9,9.7,18.5,17.4,24.9
		c-5,6.6-3.3,16-1.1,22.9c5.2,16.3,39.2,110.2,41.7,115.8C467.7,330.1,472.7,337.6,482.1,344.2z M407.5,278.2
		c0,0-18.2-50.3-20.2-54.7c-1.9-4.4-7.7-21.3-7.7-21.3s-1.9,19.1-2.5,22.1c-0.6,3-8.3,58.3-8.3,58.3L407.5,278.2z"/>
</g>
</svg>
