<?xml version="1.0" encoding="utf-8"?>
<!-- Generator: Adobe Illustrator 25.0.0, SVG Export Plug-In . SVG Version: 6.00 Build 0)  -->
<svg version="1.1"
	 id="Layer_1" xmlns:cc="http://creativecommons.org/ns#" xmlns:dc="http://purl.org/dc/elements/1.1/" xmlns:rdf="http://www.w3.org/1999/02/22-rdf-syntax-ns#"
	 xmlns="http://www.w3.org/2000/svg" xmlns:xlink="http://www.w3.org/1999/xlink" x="0px" y="0px" viewBox="0 0 971 354.9"
	 style="enable-background:new 0 0 971 354.9;" xml:space="preserve">
<style type="text/css">
	.st0{fill:#13274F;}
	.st1{fill:#CE1141;}
	.st2{fill:#EAAA00;}
</style>
<g transform="matrix(.5 0 0 .5 .91170 1.0884)">
	<path class="st0" d="M736.2,418.7c11.7,15.5,27.9,25.6,48.2,27.6c20.1,0.7,41.5-9.2,57.8-20.7c12,8.6,28.4,16.9,50.3,14.6
		c32.1-3.4,64-28.2,97.5-76.1l19.7-30.2c19.8-31.1,49.3-77.2,72.4-101.4c-1.7,4.5-3.6,9.5-7.4,15.8c-19.4,32.7-37.8,66.5-37.8,95.7
		c0,6.9,1,13.4,3.3,19.6c5.1,14.3,16.3,25,31.5,30.1c61.9,20.5,127.4-32.6,177.4-141.8c6.3-1.7,12.5-3.9,18.6-6.5
		c-7.1,15.5-11.7,30-11.7,42.8c0,21.5,8.8,38.9,20.9,50.5c30.9,29.9,85.1,28.2,125.4-1c17.3,9.8,37.6,15.9,59.1,16.1
		c46.6,0.8,87.7-20.5,112.7-58.4c24.7-37.4,29.1-85.5,11.9-128.8h0c-6.2-15.3-23.8-59.7,3.4-97.4c10.4-12.6,5.6-26.3,3.8-30.1
		c-1.7-3.8-8.9-16.4-26.8-16.1h-1l-1,0.1c-55.3,5.5-86,70.2-118.4,138.7c-3.4,7-7.4,14.6-11.2,21.9c-1.5-0.3-3-0.8-4.5-1
		c-5.4-0.6-10.4,0.1-15.5,0.6c-0.2-0.9-0.1-1.7-0.4-2.6c-1.1-3.2-3.8-5.8-6-8.5c4.5-1.1,10-2.6,10-2.6c15.3-4,20.8-19.7,22.5-26.4
		c1.1-4.5,1.7-9,1.7-13.4c0-10.1-2.9-20-8.5-28.5c-9-13.6-23.7-22.7-40.7-24.9c-32.4-4.3-67.6,22.9-82,60.1
		c-11.7,13.3-24.9,22.7-37.9,29.1c-3.3-26.5-19.7-45.6-43.9-49.9c-26.3-4.6-53.1,9.8-64,34.3c-0.4,1-0.6,2-1,3.1
		c-5.3-9.1-12.4-16.6-21.9-20.4c-69.6-27.9-122.7,56.3-169.4,130.5C954.2,293,936.5,321,919.6,340c-1.4,1.7-2.1,1.9-3.2,3
		c0.4-4.9,1.6-10.8,5-18.3c0.4-0.8,63.9-151.6,63.9-151.6l-87.8,8.8c0,0-1.1,2.5-1.7,4.3c-8-4-16.7-7.4-26.8-8.7
		c-78.3-10-126.5,59.6-145.6,128.1c-1.2,3.6-7.9,17.3-14.3,28.5c-25.4,45.3-47.2,57.8-55.8,58.7c-0.6-2.5-1.3-4.9-1.3-8.7
		c0-24,11.8-72.8,24.9-105.2c2-5.6,2.8-10.6,2.8-14.9c0-11.4-5.7-18.4-8.9-21.3c-6.8-6.3-18.7-10.4-32-3.6
		c-14.9,8.9-29.8,14.2-43.7,17.4c0.2-2.1,0.8-4.6,0.8-6.7c0-6-0.8-11.6-2.5-16.3c-8.4-22.4-25.1-37.2-45.9-40.6
		c-20.9-3.3-42.3,5.7-55.9,23.3c-9,11.7-13.5,25.5-13.5,40.1c0,9.2,1.8,18.6,5.4,28c3.4,8.8,9.5,17.2,16.7,25
		c-8,16.5-17.1,34.2-26.2,50.2c-26.7,47.1-51.3,80.8-84.9,116.3c-1.4,1.5-2.4,2.9-3.4,4.4c0.9-2.5,1.8-5,2.7-7.4
		c7.1-21.3,10.4-42.7,10.4-63.9c0-44.2-15.7-86.4-44.2-120.9c44-34.8,70.7-85.2,70.7-137.9c0-10.5-1.2-20.9-3.3-31.5
		c6.4-2,12.8-4.1,19.8-6.3C466.3,106,464.3,84,464,81.6c-0.4-2.5-3.8-24.2-29.9-23.8c-12.9,0.2-25.3,1.1-37.6,2.2
		C370.6,25,326-2.3,258.1-2.2l0,0c-72.8,1.7-116.2,40.3-139.8,72.5c-32.4,44-42.5,94.8-35.7,122.3l3.6,14.4l14.8,5.3
		c9,2.9,18.6,0.7,25.8-5.9c21.5-17.4,34.6-22.2,37.7-22.5l3.2-0.2c-36.9,49.7-59.2,111.8-80.8,172C64.3,418.8,43,478.4,8.8,510.2
		l-10.6,10l2.6,14.6c2.9,16.4,5,51.5,3.5,86.8c-0.2,12.3,5.3,22.3,14.6,27.3c9.3,5,20.3,4,29.3-2.7C105.9,603,145,484.7,179.4,380.5
		c14.3-43.1,28-84.3,40.6-112.7c-1.6,7.6-1.7,15.4,0.1,23.3c8.1,30.8,33.8,46.8,64.1,40.8c0,0,2.8-1.3,6.2-2.9
		c9.3,14.3,14.3,34.9,14.3,57.5c0,17.6-3,36.5-9.2,54.2c-8.1,22.9-33.5,76.2-95.5,74.8c-13.4-0.4-27.3-6.3-30.1-7.7
		c-15.8-9.3-30.2-2.5-36.7,7.8c-6.6,10.6-6.1,26.8,7.6,37.4c0.4,0.3,1.1,1,1.1,1c13.5,12.1,45.2,40.7,108,38.2
		c52.5-2.2,101.7-39.3,128.5-94.9c-0.1,0.7-0.3,1.5-0.3,2.2c0,8.2,3.9,14.2,5.8,16.6c6.9,9.1,21.4,15.7,39.6,4.4
		c10.1-6.3,23.7-15.3,38.4-28.8c24.9-22.9,49.4-54.4,77.2-99.2c1.3-2.1,15.5-25.1,29.3-53.9c3,0.1,6.2-0.1,9.3-0.3
		c-6.9,20.3-14.2,44.9-14.2,68.2c0,26,9.1,50,37.9,63C633.7,484.4,686.3,472.2,736.2,418.7z M1508.6,193.1c2.5-4.5,5-9.2,7.5-13.7
		l0,0c1,5.2,2.2,10.2,2.2,16.3c0,2.3-0.1,4.8-0.3,7.3c-2,43.5-27.6,58-51.2,62.7C1482.8,241.4,1496.4,215.8,1508.6,193.1z
		 M1383,148.3c1.4-1.2,2.3-1.7,3.4-2.3c0.8,7.8,4.3,13.6,6.4,16v0c0,0,1.6,1.7,2.4,2.6c-5.4-1.4-11.1-2.5-18.2-0.1
		c-0.2,0-0.6-0.2-0.9-0.3c0-0.3-0.1-0.6-0.1-1C1375.9,157.5,1379.1,151.5,1383,148.3z M1345.2,261.3c2.3-4.7,5.9-9.2,10-13.5l0,0
		c-0.6,4.1-2.5,8.1-2.5,12c0,8.6,1.6,16.9,4.3,25.1c-5.8,2-11.3,2.9-14.1,0.4c-1.8-1.6-2.7-4.1-2.7-7.5
		C1340.2,273.5,1341.9,267.7,1345.2,261.3z M1150.7,252.7l9.3-19.6c2-4.3,2.7-7.6,4.1-11.6l0,0c0.6,1.5,0.9,3,1.6,4.4
		c3.1,5.7,8,9.6,12.5,13.8c-19.4,35.2-38,58-49.5,65.3C1132.7,290.4,1143.8,267.1,1150.7,252.7z M804.1,327.5
		c8.1-40.4,34.3-73.1,47.1-73.1l0,0c1.6,0,1.9,0.4,2,0.6c0.9,1.4,1.8,4.4,1.8,9.3c0,6.8-1.7,17.3-7.3,32c-20,52.2-34,61.6-37.8,63.2
		c-1,0.6-1.9,0.9-4.6-0.2C803.8,358.7,799.9,348.8,804.1,327.5z M188.3,159.1l-0.2-3.2c-0.3-5.9-1.1-37.1,17.3-56.5
		c10.4-10.9,26-16.6,46.2-17.1l0,0c2.9-0.1,5.9-0.1,9,0.1c5.9,0.3,15.1,2.2,24.9,6.3C248.3,105.6,215.7,129.3,188.3,159.1z
		 M302.8,229.8l-0.3,0.3c-0.9,1.1-2,2.1-3,3c-21.4-10.6-44-9.4-60.9,4.1c-1.7,1.4-3.2,2.9-4.7,4.5c0.3-0.4,0.7-1.1,0.9-1.5l5.1-7.1
		c16.3-22.6,35.3-48.9,90.6-77.3l0,0C330.2,169.8,326.7,200.2,302.8,229.8z M1940.2,609.2c0,7.3-1.3,15.1-4.8,22.9
		c-12,26.9-38.6,31.9-52.9,34.6l-3.6,0.7l-21.7,0.6h-1.5c-0.1,0-0.5,0.3-0.5,0.3c-15.6,9.5-47.2,27.8-78.2,21.9
		c-33,12.6-69.6,16.1-102.9,9.9c-32,11.3-58.6,10.1-78.5-5.2c-12.5-9.6-26.3-27.6-26.3-60.2c0-4.7,0.3-9.9,1-15.3
		c1.1-9.3,3.7-17.4,6.9-24.7c-4.1-12.1-6-23.9-6-35c0-9,1.2-17.5,2.8-25.5c-202.1,30.2-771.2,115.2-794.4,117.1
		c-36.6,3.2-77.9-14.3-84.3-72.9c-3.7-33.8,19.5-73.7,69.8-80.4c17.6-2.5,800.9-115.4,840.5-121.2c0-0.2,0.6-12.8,0.6-12.8
		c0.4-15.6,0.9-36.8,14.6-54.5c0,0,1.5-1.8,2.6-3.2l0.2-3.9c0-41.4,2.7-58.7,19-79l1.3-1.7l11.4-12.5c0,0,1.9-1.8,3-3
		c0.2-2.2,0.8-7.5,0.8-7.5c1.1-13.3,2.8-33.4,16.2-54l24.2-37.7l35.6,26.5c15,11.2,19.6,21,21.3,25.3c1,2.1,4.2,9.7,4.2,9.7
		c2.7,6.9,3.6,8.9,10.4,15.8c31.5,31.6,31.7,70.8,31.9,92c0,0,0,1.9,0.1,3.7c9.4,10.6,26.1,31.2,27,67.4c27.9-2,52.6,5.6,69.3,22.1
		c16.8,16.7,23.2,40.4,17.4,63.2c-2.8,10.6-9.8,26.4-27,40.6c1.7,3.9,3,7.4,4.1,10.5l2.8,6.9l6.3,9.2c7.9,10.8,18.9,25.7,23.3,46.1
		c1.7,7.3,2,13.8,2,19c0,1.5-0.1,2.6-0.2,3.9C1931.5,575,1940.2,590.6,1940.2,609.2z"/>
	<path class="st1" d="M315.5,283.9c115.1,100.3,39.3,277.3-66.6,281.8c-56.8,2.3-82.1-24.8-92.6-34.1c-2.1-1.5-2-2.5,1.2-0.6
		c3.2,2,22.2,10.5,42,11c130.7,2.9,164.4-189.5,97.6-244.8c-1.9-1.6-11.9,7.3-17.8,8.4c-19.3,3.8-30.6-7.1-34.2-20.8
		c-4.7-20.6,16.4-42.6,44.3-27.7c5.2,3.6,4.6,2.4,9.3,6.2c3.7,0.7,16.5-7.2,23.8-16.7c32.2-39.9,35.4-84.6,33.2-102.6
		c-1.3-9.8-3.7-18.5-6.9-26.4c-91.2,39.5-113,76.7-134.7,106.3C166,290,117.2,561.5,33.1,624.6c-1.1,0.8-3.2,1.9-3.1-1.9
		c1.5-34.9-0.4-72.6-3.9-92.6c74.6-69.5,88.7-236.4,165.7-335.4c42.8-55.1,96.2-82.9,146.2-96.9c-21.4-29.7-55.9-40.9-76.2-41.8
		c-90-4.2-101.2,69.3-99.4,101.7c-11.7,1-30.5,10.9-52.8,29.1c-1,1-1.9,0-2.1-0.7C98.4,149.3,138.3,27,258.2,24.5l0,0
		C321.7,24.3,363.4,51,384,88.1c18.4-2.5,35.6-3.5,50.5-3.8c6.5,0,3.7,1.4,0,2.3c-16.1,5-30.6,10-44.2,14.8
		C414.9,162.7,389,244.1,315.5,283.9z M1912,578L1912,578l-1.4-2.4c0,0-0.6-0.8-1.3-1.4c0-0.3,0-0.9,0-0.9c0.2-2.3,0.5-5.3,0.5-8.6
		c0-4.2-0.4-9.2-1.6-15c-3.5-16.2-12.6-28.6-20-38.7l-7.6-11.1l-4.1-9.7c-2.3-6.3-5.2-14.3-11.4-23.1c23.1-13.1,31-29.3,33.7-39.6
		c4.2-16.1-0.4-32.8-12.4-44.6c-14.8-14.7-38.3-20.1-65.2-15.6c-1.2-1.7-2.4-3.4-3.6-5c0,0-4.8-7.2-6-8.9c0.1-1.2,0.2-2.6,0.2-3.8
		c0-31.7-14.6-48.3-23.5-58.4c0,0-2.5-3-3.4-4.2c-0.1-2.5-0.5-10.9-0.5-10.9c-0.1-19.7-0.4-52.5-26.3-78.5
		c-9.5-9.6-11.4-14.3-14.5-22.2l-4.2-10.1c-1-2.1-3.5-7.5-14.3-16.2l-20.3-16.5l0,0l-14.2,22.2c-10.8,16.6-12.1,33.2-13.1,45.3
		l-1.5,12c-0.8,3.4-2.5,5.4-7.9,10.5l-9.7,10.7l-1.5,1.8c-11.5,14.4-14.8,24.9-14.8,66.9c0,9.1-0.9,11.5-0.9,11.6
		c-0.1,0.1-2.5,3.1-2.5,3.1l-3.4,4.2c-9.9,12.6-10.2,28.9-10.6,43.1l-0.9,15.3c-1,6.9-2.3,11.2-3.7,14
		c-17.9,2.6-844.8,121.8-852.5,122.9c-43.3,5.9-56,39.6-53.8,59.7c6,55.1,47.1,57.5,64.5,56.1c23.7-2.1,662.4-97.4,821.2-121.2
		c-4.7,13.9-9.9,30.2-9.9,48.4c0,11.6,2.1,23.9,8,36.5c-4.3,8.1-7.7,16.2-8.9,25.6c-0.5,4.7-0.8,8.8-0.8,12.8
		c0,24.9,9.9,38.3,19,45.2c21.9,17,51.6,7.6,67.3,1.1c32.1,6.8,67.7,2.6,99.8-10.4c26.1,9.6,56.4-8.8,72.3-18.5l3.6-2.1
		c1.7-1.1,3.1-1.1,9.1-0.7l16.8-0.4l3.8-0.8c13.3-2.4,31.5-5.8,39.5-23.8c2.3-5.1,3.2-10.1,3.2-15.1
		C1922,597.4,1916.7,586.3,1912,578z M743.5,368.8c-47.9,70.3-102.6,89.8-131.7,76.6c-52-23.5,1.9-116.6,4.7-143.1
		c0,0-0.5-2-1.9-1.4c-5.6,2.6-19.4,8.8-26.7,10.1c-13.1,2.3-24.8,1.7-35.1-0.6c-11.3,25.6-25.5,52.1-35.3,67.8
		c-25.4,41.1-49.1,72-72.6,93.7c-12.3,11.3-23.7,19.1-34.6,25.9c-3.6,2.2-10.3,4.9-2.6-3.4c31.3-33.1,57.9-67.2,88.7-121.5
		c11.7-20.6,25.3-47.3,36-70.5c-12.1-7.2-20.6-17.3-24.7-28c-19.1-49.2,44.1-79.2,61.8-31.5c3.2,8.6-0.4,25.2-7.3,44.3
		c27.1,1.3,61.4-8.1,88.4-24.3c3.7-1.9,4.8,0,2.8,5.7c-11.5,28.5-44.8,133.3-13.8,148.2c23.9,11.6,59.4-11.1,92.1-69.3
		c3.3-6,14.5-26.6,16.7-34.4c16-57.3,55.4-117.1,117.8-109.1c22.1,2.8,36.8,17.1,40.5,26.6l9.2-23.8l28.5-2.9l-46,109.3
		c-21.2,45.6,2.1,87.9,40.5,44.6c60.1-67.9,122.2-229.3,194.3-200.4c13.9,5.5,21.1,26.7,3.8,64c-21.8,47-56.2,105.3-19.5,113.6
		c30.8,7,71.6-55.7,95.7-105.7c-32.1-4.7-35.7-42.9-24.3-68.3c11.6-26.2,56.1-29.1,59.4,9.6c0.6,6.4-2.2,18.5-6.8,32.2
		c28.6-2.9,64.6-19.7,90.6-50.1c7.9-29,35.5-52.9,58-50c16.9,2.2,30.2,16.3,25.8,33.7c-1.5,6.2-5.4,10.2-3.7,4.8
		c3.2-14.6-14.6-39.3-45.2-13.8c-12.1,10.1-20.3,28.8-15.1,47.1c3.6,12.6,20.9,19.5,33.1,15.2c10.1-3.5,3.4,5.1-2.7,7.7
		c-12.8,5-46.1,25.3-59.5,51.1c-27.6,52.8,21.2,84.1,58.4,54c3.1-2.5,6.3-5.5,9.4-8.6c-11.9-16.1-15.7-36.3-6.8-57.5
		c15.3-36.6,51.9-29.3,63-19.8c8.2-14.6,15.8-29.2,22.4-43c31.4-66.4,57.5-120.1,97.8-123.9l0,0c3.8-0.2,4,1.2,1.9,3.7
		c-36.4,50.8-12.8,107.7-6.5,123.3v0c29.3,73.6-19.9,151.8-100.2,150.5c-23.8-0.3-45.4-8.6-60.5-21.6c-2.4,2.3-4.8,4.8-7.4,6.9
		c-57.9,49.8-153.1,10.6-93.3-74.2c9.8-12.8,27.3-26.2,43.8-38.6c-8.4-4.2-13.5-16.7-14.4-25.8c-12.8,13.1-59.8,49.1-98.8,55.1
		c-34.6,80-92.1,159.1-151.6,139.3c-36-12-6.6-66.2,17.1-106.2c32.7-54.9,5.2-87.4-31-50.7c-34.4,35-79.2,112.2-96.6,137
		c-72.4,103.1-111.4,57-127.1,42.8c-8.3,11.4-35.8,29.1-55.2,28.5C760.6,417.3,746.9,396.7,743.5,368.8z M1418,288.1
		c12.7,5.5,28.7,8,45.7,5.8c26.6-3.5,76.9-20.8,80-88.8c3.4-45.6-19.1-71.1-17.5-88l0,0C1501,138.7,1469.3,228,1418,288.1z
		 M1404,279.5c10.1-12,19.9-26,29.4-40.9c-3.3-6-11-13.1-19.4-13.3c-6.6-0.1-13.6,3.9-19.4,15.8h0
		C1387.4,255.7,1392.3,269.5,1404,279.5z M1224.7,203.2c10.5-26.4,10.5-39.2-1.4-43.8c-1.2-0.5-2.4-0.7-3.5-0.8l0,0
		c-17-1.6-26.4,34-7.5,41.8C1215.8,201.8,1220.1,202.7,1224.7,203.2z M795.1,383.7c30.5,13.5,54.8-20.6,76.6-77.6
		c20.8-54.4,2.5-78.2-20.5-78.2C798.7,227.9,748.1,362.7,795.1,383.7z M551.1,253.5c0.4-12.8-6.3-18.2-13.8-18.3
		c-12.5-0.2-27.3,14.4-15.7,33.5c4.1,6.9,10.9,11.6,19.2,14.7C547,269,550.9,257.9,551.1,253.5z"/>
	<path class="st0" d="M1894.5,588.4L1894.5,588.4c-6.1-6.5-5.8-10.2-5.3-16.8c0.4-4.5,0.8-10.1-0.8-17.5
		c-2.5-11.8-9.6-21.4-16.4-30.6l-9-13.5l-5.5-12.6c-2.9-8.1-5.8-16.4-15.4-26.2c-0.8-0.9-1.5-1.7-2.3-2.6l-8.1-10.2
		c26.2-7.7,43.6-20.8,47.6-36.3c2.3-8.8-0.3-17.8-6.9-24.4c-9.5-9.5-30.5-15.9-61-7.2c-0.1-0.1-0.2-0.2-0.2-0.4
		c-2.4-5-6-10.2-9.7-15.4c-0.4-0.6-0.8-1.1-1.3-1.7c-2.1-3-4.9-7.4-6.9-10.8c-1.1-2.5-2-4.6-1.9-6.3c2-27.9-9.6-41.1-18-50.7
		c-3.8-4.3-7-7.9-8-11.8c-1.1-4.1-1.2-10.2-1.2-17.2c-0.1-18.5-0.3-43.8-20.1-63.8c-12.6-12.5-15.7-20.3-19.2-29.1l-3.8-8.8
		c-1.3-3.4-6.5-7.5-8.8-9.1l-3.1-2.3l-2.1,3.3c-7.9,12.3-8.9,24.6-9.8,35.4l-1.9,15.4c-2.4,9.5-7.8,14.9-13.7,20.6l-7.9,8.5
		l-1.7,2.1c-7.3,9.2-10.2,14.4-10.2,53.8c0,18.4-3,21.9-8.2,28.3l-3,3.8c-5.6,7.2-5.8,18.5-6.1,30.4l-1.1,18.1
		c-0.3,2.3-0.7,4.5-1.1,6.4l-2.1,8.5c-0.1,0-0.1,0.1-0.1,0.1h-0.1c-2.3,7.5-5.3,11.7-8.7,14.7c-0.4,0.2-0.7,0.5-1.1,0.7
		c-2.3,0.4-25.3,3.7-62.6,9.1l-6.2,0.8c-0.1,0-0.1,0.1-0.2,0.1c-23.4,3.4-51.9,7.5-83.9,12.1c-0.1,0-0.1-0.1-0.1-0.1l-16.8,2.4
		c-179.9,26-456.9,66-599.3,86.5c-0.3,0-0.6-0.2-0.9-0.2l-18.4,3l-72.2,10.4c-29,3.9-37.7,24.6-36.4,36.7c1.1,10.1,4.4,41,42.8,37.7
		c4-0.4,26.9-3.6,62.6-8.7c0.2,0,0.3,0.1,0.5,0.1l19.1-3c123.7-18,361.2-53.3,540.6-80l1.7-0.1l9.7-1.5
		c73.6-11.1,136.5-20.5,176.3-26.4c0.3,0,0.6,0.1,0.9,0l27.7-4.3c0.1,0,0.1-0.1,0.2-0.1c4.4-0.7,8-1.2,10.8-1.6
		c-0.9,9-3.8,18.7-7.1,29c-4.7,13.8-9.6,28.5-9.6,44.2c0,11.6,3.1,23.7,10.6,36.1c-0.3,0.8-1,2.5-1,2.5
		c-6.8,11.1-9.7,18.2-10.7,26.5c-0.5,3.6-0.6,7.1-0.6,10.3c0,13.3,3.6,22.8,10.9,28.4c10.6,8.2,28.5,6.9,52.8-3.8
		c32.8,8.7,71.3,4.3,103.9-11.3c17.4,11.9,45.1-4.6,60.3-13.8l3.8-2.2c7.4-4.4,14.2-3.9,20.7-3.3l11.4-0.1l3.9-0.8
		c11-2,21.2-4,24.9-12.1C1903.2,609.1,1901.3,600.6,1894.5,588.4z M836.9,595.5L836.9,595.5c-35,5.1-57.3,8.3-61.2,8.6
		c-27.7,2.4-33.2-15.2-34.9-31c-0.1-0.4-0.1-0.9-0.1-1.6c0-7.4,5.2-23.4,30.2-26.7l59.3-8.6c4.9,3.6,9,12.7,10.9,24.1
		C843.3,574.4,841.6,588.2,836.9,595.5z M1368.7,516.9L1368.7,516.9c-166.7,24.8-373.1,55.5-493.5,73c4.4-10.7,4.4-25.1,2.6-35.7
		c-1.6-9.8-4.7-17.9-8.8-23.5l493.2-71.2C1365.9,475.1,1369.1,492.6,1368.7,516.9z M1402.9,486.9L1402.9,486.9
		c-1.2-12.2-3.3-22.7-5.7-32.4l32.3-4.6L1402.9,486.9z M1453.9,504.2c-7.4,1.1-15,2.2-22.8,3.4l21.6-30.5
		C1453.6,485.1,1454.1,494.1,1453.9,504.2z M1489,498.9c0.1-10-0.3-18.8-1.2-27l24.8,23.5C1505,496.6,1497.1,497.7,1489,498.9z
		 M1532.6,463.9L1532.6,463.9c-3.7-3.4-18.8-17.3-27.2-25l49-7.1C1547.7,441.8,1535.5,459.8,1532.6,463.9z M1583.4,484.9
		c-8.5,1.2-17.9,2.6-28.2,4.2l26.4-35.4C1582.9,462.6,1583.6,472.7,1583.4,484.9z M1867.3,403.4c3.5,3.4,5.4,7.8,5.4,12.4
		c0,1.5-0.2,2.9-0.5,4.5c-3.4,13-20.1,24.6-44.7,31.4c-2.1-2.9-4.1-6.8-5.7-11c-0.8-1.7-1.4-3.5-1.9-5.1c0-0.2-0.2-0.3-0.3-0.4
		c-1.5-4.3-2.7-8.1-3.3-10.5c-1-4.4-1.7-8.5-2.1-12.2c-0.3-3.2-0.3-6.4-0.3-8.9c0,0-0.2-1.1-0.4-2.6v-1.5c0-0.1,0-0.2,0-0.3v-0.3
		c0-0.3-0.1-0.6-0.1-0.9C1840.8,390.1,1859.2,395.4,1867.3,403.4z M1807.4,418c0.3,2.3,0.7,4.7,1.4,7.2c0,0,0,0.1,0.1,0.2v0.2l0,0.2
		c0.5,2.3,1.2,4.8,2,7.3c-4.7-0.1-9.1-1-13-2.7C1801,426.4,1804.2,422.2,1807.4,418z M1798.2,383.5L1798.2,383.5
		c-7.6,10.9-16.6,22.3-27.1,33.6c-8.3-4.5-21.8-15-30.8-23.6c3.1-0.4,6.2-1,9.2-1.4L1798.2,383.5z M1785,459.3
		c-4.4,0-8.4-0.1-12-0.5c1.1-1.1,2.1-2.1,3.2-3.2C1779,457.1,1781.9,458.3,1785,459.3z M1674.1,430.3L1674.1,430.3
		c-0.6-6.9-2.2-13.3-4.7-18c-0.5-1.3-1.3-2.2-2-3.2c10.4-3.4,21.4-6.3,32.8-8.6c14.4,14.7,35,30.9,47.1,39c-3.6,2.9-7.3,5.6-11,8.3
		l-9.4-3.1C1711.8,439.4,1691.5,432.5,1674.1,430.3z M1697,469L1697,469c-11,4.3-22.7,7.7-35.4,10c3.9-6.5,6.8-12.8,8.8-19
		c6.5,1,12.8,3.5,18.9,6C1691.8,467.1,1694.3,468.1,1697,469z M1651.9,364.9c0.2-10.7,0.4-20.8,4.5-26l2.8-3.5c6.6-8,10-13,10-33.2
		c0-38.2,2.9-41.8,8.6-48.9l1.7-2.2l7.2-7.8c6-5.9,12.8-12.5,15.7-24.2l2.2-16.4c0.8-9.3,2.2-18.7,7-28c1.4,1.3,2.5,2.4,2.7,3.1
		c0.1,0.2,3.6,8.6,3.6,8.6c3.7,9.2,7.2,18,20.8,31.8c17.8,17.7,17.9,40.2,18,58.3c0.1,7.5,0.1,14,1.4,19.1
		c1.5,5.6,5.4,10.1,9.6,14.9c7.3,8.3,16.3,18.5,16.3,39.3c0,1.8,0,3.7-0.2,5.6c0.1,0.3,0.1,0.6,0.1,1l-34.1,5.8
		c8.5-20.7,2.5-46.4-6.2-63.6c-0.9-1.8-3.1-2.6-5-1.5c-1.8,0.9-2.4,3.2-1.5,5.1c8.5,16.9,14.4,42.8,3.7,61.6l-6.1,1.1
		c-28.8,4.3-58.3,8.7-84,17.2L1651.9,364.9L1651.9,364.9z M1624.5,478.7L1624.5,478.7c-1.6,0.3-3.6,0.6-6,0.9
		c0.4-22.8-2.7-39.3-6.7-56l16.1-2.3c0.3,0.1,0.4,0.3,0.8,0.3c4.3,0,7.2,1.8,9,5.6C1642.7,438.4,1636.4,463,1624.5,478.7z
		 M1893.7,612.3L1893.7,612.3c-2.1,4.6-10.5,6.3-19.5,7.9l-3.9,0.8h-9.5c-7-0.6-15.6-1.3-25,4.3l-3.9,2.2
		c-13.2,8.1-40.7,24.7-53.9,13.4l-1.8-1.6l-2.1,1.1c-11.9,5.9-54.6,24.2-102,11.1l-1.2-0.3l-1.1,0.5c-22.1,10-38.3,11.7-46.8,5.2
		c-6.8-5.3-9.2-15.8-7.3-31.7c0.8-6.9,3.4-13.2,9.6-23.2l3-8.3l-1.2-0.7c-17.4-26.9-9.2-51.5-1.2-75.4
		c51.5-2.3,87.6-13.7,117.4-34.1c30.7,7.8,70.7,6.6,97.1-2.8c5.5,6.9,7.9,13,10.2,19.3l6,13.9l9.6,14.2c6.3,8.6,12.7,17.5,15,27.7
		c0.7,3.3,0.9,6.2,0.9,8.8c0,2.3-0.2,4.4-0.3,6.4c-0.1,1.8-0.3,3.5-0.3,5.3c0,5.2,1.2,10.5,7.2,16.6c3.6,6.7,5.6,12.2,5.6,16.1
		C1894.3,610.4,1894.1,611.4,1893.7,612.3z M1862.1,577.4c-0.5,2.5-2.2,9.9-9,12l-10.8,0.1l-6.4-0.3c-3.7,0.4-7.7,2-10.6,4.5
		l-12.9,10.2l-5.8,2.6c-6.8,1.6-13.5,1.1-20.4-1.6c-1.9-0.7-2.9-2.9-2.2-4.9c0.7-2,2.8-2.9,4.7-2.2c5.6,2.1,10.9,2.6,16.3,1.3
		l2.9-1.2l12.9-10.3c3.9-3.2,9.1-5.5,14.3-6l8.3,0.4l7.6,0.2c1.3-0.4,2.9-1.5,4-6.5l0,0c0.4-2,2.4-3.3,4.4-2.8
		C1861.3,573.4,1862.5,575.3,1862.1,577.4z M1812.7,496.6c0.1-2,1.8-3.7,3.9-3.5l0,0c2,0.1,3.6,1.8,3.5,3.9
		c-0.3,4.7,5.7,9.5,12.5,15c12.1,9.8,28.5,23.2,21.7,47.8c-0.6,2.1-2.6,3.2-4.6,2.6c-2-0.6-3.1-2.7-2.5-4.7c5.5-19.7-7-30-19.1-39.7
		C1819.9,511.4,1812.3,505.3,1812.7,496.6z M1683.2,362c-7.8-9-10.7-20.2-8.4-32c2.3-11.9,10.1-22.7,19.8-27.4
		c1.8-0.9,4-0.1,4.9,1.8v0c0.8,1.9,0.1,4.2-1.8,5c-7.5,3.7-13.8,12.5-15.6,22.1c-1.9,9.3,0.5,18.2,6.6,25.4c1.4,1.6,1.3,4-0.2,5.4
		C1686.9,363.6,1684.6,363.6,1683.2,362z M1759.2,569.6c-0.4,1.7-0.4,3.1-2.1,3.2c-1.2,0.1-3.2,0.2-4.7-1.4
		c-3.6-3.8-10.9-11.7-6.9-21c5.9-13.9,5.6-27.9-1.1-38.7c-1.1-1.7-0.6-4.1,1.1-5.2c1.7-1.1,4-0.6,5.1,1.1l0,0
		c8,13,8.6,29.7,1.7,45.8c-1.5,3.4,0,6.9,5.4,12.7C1757.6,566.2,1759.5,567.9,1759.2,569.6z M1650.4,574.4c-1.9,0.6-4-0.4-4.5-2.5
		c-3.6-13.1,5.9-20.2,13.5-25.9l8.1-6.8c2-2.4,6.3-9.5,1.5-14.3c-1.4-1.4-1.5-3.8,0-5.2c1.4-1.5,3.7-1.5,5.2-0.1l0,0
		c7.1,7.2,4.7,17.9-1.3,24.8l-9.1,7.7c-8.1,6-13,10.2-10.8,17.8C1653.6,571.9,1652.4,573.9,1650.4,574.4z M1719.3,258.2
		c-4.7-11.5-4.9-24.9-0.7-34.8c0.8-2,3-2.8,4.9-2h0c1.9,0.8,2.7,3.1,1.9,5c-3.5,8.2-3.2,19.1,0.7,28.9c3,7.3,7.7,12.8,12.9,14.8
		c1.9,0.7,2.9,2.9,2.2,4.8c-0.7,2-2.8,3-4.7,2.2C1729.3,274.3,1723.2,267.7,1719.3,258.2z M1726.6,609.2c3.5,3.4-1.7,5.7-0.1,4.7
		l-5.8,3.7l-0.8,0.2c-4.4,1.7-8.4,0.3-12-0.9c-2.8-1-5.2-1.7-7.4-1.1l-9.6,4.5l-12,5.4c-11.8,3.3-24.7-3.9-29.2-16.2
		c-0.7-1.9,0.2-4.2,2.1-4.9c1.9-0.7,4,0.3,4.7,2.2l0,0c3.3,8.8,12.3,13.9,20.5,11.6l10.5-4.8l11-4.9c4.3-1.5,8.3-0.2,11.7,1.1
		c2.8,0.8,5.2,1.8,7.2,1l3-1l-0.2,0.1C1720.5,609.8,1725.3,608,1726.6,609.2z"/>
	<path class="st2" d="M1662.6,402.8c-4.1-4-8.8-6.5-14-7.3c0.4-1.7,0.8-3.4,1.1-5.2c25.8-9,56.4-13.7,86.2-18.1c0,0,3.2-0.6,8.1-1.3
		l0,0c0-0.1,0.1-0.1,0.2-0.1c13.2-2.3,37.9-6.5,41.5-7.1c0.1,0.2,0.4,0.5,0.4,0.8c1.8,4,4.5,8.1,7.5,12.4l-45.3,7.8
		c-8.7,1.3-17.3,2.6-26,4.1c-12.5,1.9-19.4,3.2-21.9,4C1687.4,395.5,1674.6,398.6,1662.6,402.8z M1753.3,434.4
		c0.2-0.2,0.4-0.3,0.5-0.4l1.7-1.5c0,0,6.3-6.3,10.1-10c-10.9-6.5-26.4-19-34.2-27.5c-4,0.6-7.5,1.1-10.7,1.7
		c-3.8,0.6-7.7,1.3-11.6,2C1723.9,412.8,1743,427.8,1753.3,434.4L1753.3,434.4z M1834.4,474c-3.8-4.3-7.2-8.5-10.1-12.8
		c-14.3,5.2-43.4,7.4-57.9,4.3c-2.6,2.5-5.8,5.3-9.1,7.9c-1.1,0.8-2,1.6-3.1,2.3c-0.8,0.7-1.5,1.5-2.3,2c27.3,5.5,59.7,4.3,83-3.2
		l0,0C1834.8,474.3,1834.6,474.1,1834.4,474z M1634.1,477.2l0,4.3c4.1-0.1,8.2-0.3,12.1-0.7c0.3,0,0.5-0.1,0.8-0.1
		c1.7-0.1,3.2-0.4,4.8-0.6c7.9-11.4,12.4-22.8,14.2-33.3c0.1-0.4,0.2-0.8,0.2-1.3c0.5-3.2,0.8-6.4,0.8-9.3c0-0.2,0-0.4,0-0.6
		c-0.1-7.8-1.5-14.6-4.1-20c-0.9-1.8-2-3.5-3.1-4.9l-0.2-0.2c-3.6-4.5-8.2-6.9-13.4-7.4h0c-2.1,5.6-4.8,10-8.2,13.5
		c2.6,1.7,4.7,4.1,6.2,7.3c1.7,3.8,2.5,8.4,2.5,13.4c0,12.9-5.4,28.2-12.7,40H1634.1z M1672.4,453c7,1.2,13.4,3.5,19.6,6.1
		c5.6,2.3,10.8,4.4,16,5.3l0,0c0.1,0,0.3-0.2,0.4-0.2c7-3.4,13.7-7.1,20-11.1l-3.8-1.2c-14.5-5.1-33.9-11.6-50.3-13.8
		C1674.2,442.8,1673.6,447.8,1672.4,453z M1369.6,458.7L1369.6,458.7c3.5,14.7,6.5,30.9,6.5,53c0,1.2,0,2.6-0.1,3.9
		c5.3-0.7,16.5-2.3,20.5-2.7v-8.2c-0.3-19.8-3.3-35-6.6-48.9C1385.6,456.3,1374.6,457.9,1369.6,458.7z M1584,427.8
		c0.9,3.1,2,7.9,3.6,15.9c0.1,0.3,0.1,0.7,0,0.9c1.9,10,3.3,21.4,3.3,35.7c0,1.1-0.1,2.3-0.1,3.5l0,0c7.9-1.2,14.8-2.1,20.4-3
		c0-1.5,0.1-3.1,0.1-4.5c0-20.6-3.1-35.9-6.8-51.4C1600.1,425.4,1589.1,427.1,1584,427.8z M1785.6,445.4c-0.5,0.5-0.9,1.1-1.3,1.6
		l0,0c-1.2,1.2-2,2.2-2.3,2.6c12.6,5.7,26.7,6.1,37.7,4.1c-0.1-0.2-0.1-0.3-0.2-0.6c-0.2-0.2-0.3-0.5-0.4-0.8c-1-1.6-1.8-3.3-2.7-5
		c-1-2.3-1.9-4.5-2.8-6.7c-7.3,0.3-14-1.3-20.2-4.2C1791.8,438.2,1788.3,442.3,1785.6,445.4z M1475,443.3l-13.2,1.9
		c-2.7,0.4-5.3,0.7-7.1,1c0.6,2.3,1.2,5.2,1.8,8.3c0.4,2,0.8,3.9,1.2,5.9c0.6,3,1,5.5,1.2,7h0c1.5,9.6,2.6,19.9,2.6,31.9
		c0,1.2-0.1,2.5-0.1,3.8c5.3-0.9,16.4-2.6,20.4-3.2c0.1-1.6,0.1-3.2,0.1-4.7c0-13.6-1.3-24.9-3.2-35.3L1475,443.3z M1439.7,448.4
		c-1.8,2.5-34.5,48-35.8,49.8v3.6c0.1,3.1,0.1,6.5,0.1,9.9c2.2-0.3,4.3-0.7,6.4-1c4.6-0.7,9.3-1.5,10.6-1.7
		c1.7-2.3,28.2-39.7,30.2-42.6c-0.6-2.9-3.1-14.8-3.9-19C1444.3,447.8,1441.4,448.2,1439.7,448.4z M1576.6,428.7
		c-2.1,0.3-5,0.7-7.5,1h0l-4.5,0.6c-1.5,2.2-28.1,41.4-28.1,41.4c-0.6,0.8-1.6,1.5-2.6,1.6c-1.1,0.1-2.1-0.3-2.9-0.9l-34.8-32.1
		c-2.2,0.3-9.2,1.5-13.6,2.1c1.3,5.8,2.6,11.6,3.7,17.8c2.4,2.3,33.4,31.7,35.7,33.9c2.9-0.5,20.5-3.1,23-3.4
		c1.7-2.2,32.6-43.5,35.1-46.8c-0.3-1.2-0.5-2.5-0.7-3.7C1578.4,436.3,1577.1,431,1576.6,428.7z M859.8,531.7
		c-2.6,0.4-14.3,2.3-21.5,3.5c4.6,5.8,8.3,13.4,10,24c0.7,4.1,1.1,8.8,1.1,13.6c0,7.7-1.7,15.3-4.4,21.8c7.3-1.1,18.7-2.9,21.2-3.2
		c3.5-5,5.5-13.4,5.5-23.1c0-4-0.3-8.3-1-12.5C868.8,544.2,864.6,535.4,859.8,531.7z M1805.9,407.5c0,0,0.2-0.3,0.3-0.5v-7.6
		c0-1-0.4-2.1-0.7-3.2c-0.7-2.1-1.8-4.2-3.1-5.9c-11.1,15.3-24.8,32.1-41.7,47.5l-0.3,0.3l-4.1,3.9c-0.2,0.1-0.5,0.2-0.7,0.3
		c-5.2,4.4-10.7,8.6-16.5,12.6c0,0.1-0.1,0.2-0.1,0.2c-8.6,6.5-24.6,15.3-29.7,16.7c-16,7.3-33.9,12.8-54,15.3
		c-0.2,0.1-0.3,0.3-0.5,0.3c-6.2,1.2-16,1.6-21.2,1.6c0,0.1,0,0.1-0.1,0.2c-0.6,4.3-1.5,8.5-2.7,12.7l0,0c-0.6,2.7-1.4,5.4-2.1,7.7
		C1718.9,504.9,1759.7,471.4,1805.9,407.5z M859.8,531.6C859.8,531.7,859.8,531.7,859.8,531.6C859.8,531.7,859.8,531.7,859.8,531.6
		L859.8,531.6z"/>
</g>
</svg>
